<svg width="621" height="1024" viewBox="0 0 621 1024" fill="none" xmlns="http://www.w3.org/2000/svg">
<path opacity="0.15" d="M256.628 378.019C241.982 385.399 225.911 395.317 209.999 406.902C197.569 415.789 178.411 431.342 154.66 450.703L149.91 454.591L103.914 407.696L108.901 403.014C118.718 393.73 131.623 382.542 148.485 368.656C157.985 360.959 167.327 354.135 176.907 347.946C126.002 328.267 100.272 293.354 100.272 244.078C100.272 210.672 112.86 182.106 136.531 161.475C160.519 140.527 192.74 129.894 232.324 129.894C238.182 129.894 247.049 130.45 257.816 131.561L263.833 132.196V199.325L256.153 198.135C247.603 196.865 240.636 196.23 234.699 196.23C215.065 196.23 198.915 201.071 186.644 210.672C175.086 218.765 169.306 230.192 169.306 244.713C169.306 259.868 176.115 271.295 190.84 280.737C206.436 291.37 226.861 296.686 251.641 296.686C266.128 296.686 288.533 292.481 324 283.197V0H-7V1024C175.798 1024 324 1024 324 1024V351.199C300.883 357.706 278.241 366.593 256.628 378.019Z" fill="#C4C4C4"/>
<path d="M46.3116 817.325C51.3473 821.9 56.8294 825.312 63.2808 827.48C62.2314 829.802 60.1909 832.149 58.7372 834.258C55.3347 839.193 51.8905 844.09 48.752 849.203C47.0342 851.985 45.3965 854.814 43.8389 857.69C42.3883 860.415 41.0162 864.434 38.9766 866.671C37.4639 868.329 35.3692 869.624 33.107 869.738C30.2156 869.884 27.3961 868.466 25.2904 866.544C25.1224 866.393 24.9584 866.237 24.7982 866.077C24.6381 865.917 24.4821 865.753 24.3303 865.585C24.1785 865.417 24.031 865.245 23.8878 865.07C23.7446 864.894 23.606 864.715 23.4718 864.532C23.3376 864.35 23.2082 864.164 23.0835 863.974C22.9587 863.785 22.8388 863.592 22.7237 863.397C22.6087 863.201 22.4986 863.003 22.3936 862.802C22.2886 862.6 22.1887 862.397 22.0938 862.19C21.9991 861.984 21.9096 861.775 21.8253 861.564C21.7411 861.354 21.6622 861.141 21.5887 860.925C21.5152 860.711 21.4472 860.494 21.3846 860.275C21.322 860.057 21.265 859.837 21.2136 859.615C21.1621 859.394 21.1163 859.171 21.076 858.948C21.0358 858.724 21.0012 858.499 20.9723 858.273C20.9435 858.048 20.9203 857.822 20.9028 857.595C20.8853 857.368 20.8736 857.141 20.8675 856.914C20.4027 843.23 37.7066 826.763 46.3116 817.325Z" fill="#F8F8F8"/>
<path d="M519.299 567.781C522.321 567.523 525.373 567.472 528.359 568.05C531.807 568.716 535.5 570.228 538.306 572.368C541.353 574.687 543.793 577.742 546.394 580.534L556.747 591.452L573.043 608.206C576.701 611.972 580.64 615.604 583.587 619.982C585.797 623.263 586.458 627.746 585.696 631.641C584.91 635.672 582.254 639.685 578.846 641.943C575.048 644.465 570.688 644.629 566.363 643.702C564.62 642.089 562.094 641.252 560.31 639.499C552.838 632.164 545.998 623.801 538.917 616.077C527.121 603.223 514.067 590.947 499.801 580.968C504.852 573.646 510.725 569.616 519.299 567.781Z" fill="#F8F8F8"/>
<path d="M68.6075 828.975C69.7069 829.107 70.6295 829.061 71.549 829.724L71.8822 830.86C71.9754 838.312 72.5227 845.776 72.9491 853.216C73.1822 857.282 73.1461 861.65 73.7926 865.653C74.1503 879.786 75.4808 894.781 79.3359 908.39C79.6195 909.374 79.8961 909.852 79.6155 910.853C78.8714 911.58 71.4159 913.729 69.6454 914.565C54.0449 921.936 43.1794 937.435 42.8128 954.986C42.5089 969.534 48.4785 984.051 58.4591 994.452C68.4518 1004.87 78.8698 1009.88 92.4234 1013.94C86.129 1014.44 79.6366 1014 73.32 1013.99C65.8113 1013.97 58.1699 1014.29 50.6763 1013.97C50.3445 1012.69 44.7582 1005.43 43.5495 1003.36C35.4113 989.462 30.4391 975.452 27.7781 959.504C23.0256 931.019 27.8122 901.139 39.5678 874.912C42.2391 868.953 47.0618 860.456 50.5045 854.847C54.336 848.605 58.4541 842.402 62.7832 836.501C64.6057 834.017 66.6918 831.722 68.4528 829.2L68.6075 828.975Z" fill="#F8F8F8"/>
<path d="M74.8285 687.35C71.6174 686.648 60.2115 702.076 54.1521 704.193C49.3158 705.883 43.9955 704.15 39.6071 702.005C29.4601 697.044 21.5391 686.979 17.8402 676.345C13.1342 662.815 13.925 648.987 20.1111 636.117C21.3909 633.454 23.0006 631.026 24.7732 628.676C31.737 619.444 39.8605 610.851 47.4682 602.142C51.8275 597.165 56.2274 592.225 60.6674 587.322C64.6287 582.9 68.5323 578.268 73.0965 574.462C74.3069 573.47 75.5581 572.534 76.8504 571.654C78.1426 570.773 79.4707 569.952 80.8348 569.191C82.1992 568.429 83.5939 567.73 85.019 567.093C86.4445 566.456 87.8951 565.884 89.3707 565.377C100.896 561.457 114.078 561.85 125.003 567.443C133.429 571.756 140.52 578.924 143.46 588.107C145.464 594.367 145.71 602.214 143.198 608.368C141.962 611.395 140.12 614.271 138.634 617.187C131.612 616.527 121.543 616.871 115.264 620.28C103.101 624.538 93.3972 635.321 87.888 646.833C83.4185 656.174 80.6043 666.026 77.9329 675.997C76.9452 679.686 75.8167 683.4 75.0726 687.144L74.8285 687.35Z" fill="#F8F8F8"/>
<path d="M168.725 590.292C173.081 585.656 180.639 583.087 186.69 581.954C197.467 579.938 210.288 581.224 219.452 587.642C221.031 588.609 222.536 589.64 224.036 590.728C225.213 591.614 226.347 592.553 227.439 593.545C228.53 594.537 229.574 595.578 230.57 596.667C231.566 597.756 232.511 598.889 233.404 600.066C234.297 601.243 235.135 602.459 235.917 603.714C237.721 603.44 239.509 603.287 241.329 603.169C248.625 603.083 256.835 604.832 262.499 609.815C262.591 609.896 262.673 609.989 262.759 610.075C268.994 614.664 272.788 621.266 274.196 628.91C275.172 638.385 272.15 646.479 266.258 653.879C264.989 655.474 263.616 657.085 262.105 658.448C263.257 661.117 264.169 663.898 265.138 666.639C266.474 671.001 267.57 675.423 268.429 679.905C270.169 691.259 270.355 702.438 267.946 713.718C266.438 720.223 264.709 726.795 261.638 732.753C261.482 733.109 261.006 733.887 261.117 734.249C261.446 735.324 270.238 743.779 271.811 745.608C273.183 743.45 274.58 741.386 276.157 739.37C285.478 727.774 299.508 723.738 311.209 715.49C320.265 709.106 324.067 702.633 325.966 691.814C327.362 691.984 328.737 692.202 330.112 692.509C337.25 694.105 341.32 698.112 345.118 704.17L346.564 703.059L347.757 704.067C342.452 707.516 337.203 711.048 332.009 714.665C329.272 716.563 326.404 718.969 323.5 720.518L322.278 719.67C312.466 726.464 302.62 733.205 292.739 739.894C287.77 743.296 282.877 746.888 277.815 750.142C275.607 750.145 273.341 750.254 271.146 750.01C270.971 750.456 270.727 750.909 270.725 751.392C269.643 754.437 269.035 757.736 268.278 760.886C266.982 766.456 265.603 772.006 264.142 777.535C260.291 792.028 256.831 806.597 253.196 821.145C250.333 832.608 247.227 844.053 244.635 855.579C234.067 850.853 223.057 846.43 212.163 842.533C215.989 837.134 220.589 832.019 223.931 826.311L222.353 826.129C218.557 831.883 214.139 837.187 210.061 842.735C209.462 843.387 208.889 844.023 208.374 844.744C204.861 848.846 201.437 853.009 197.401 856.606C193.326 860.237 188.703 863.437 184.922 867.373C181.858 870.561 179.362 874.328 176.677 877.842C174.274 880.94 171.745 883.929 169.091 886.81C166.524 889.44 163.93 892.044 161.309 894.62C152.464 902.622 143.135 910.173 133.016 916.476L131.108 917.469C118.585 913.474 106.131 909.21 92.8158 909.542C89.1732 909.633 85.674 910.581 82.1106 910.743C81.2055 910.214 81.2071 909.829 80.8182 908.873L80.6308 909.014L79.3359 908.39C75.4808 894.781 74.1504 879.785 73.7925 865.653C73.1461 861.65 73.1822 857.282 72.9491 853.216C72.5227 845.776 71.9754 838.311 71.8822 830.86L71.549 829.723C70.6294 829.061 69.7069 829.107 68.6075 828.975C66.817 828.545 65.0496 827.994 63.2806 827.479C56.8293 825.312 51.3471 821.899 46.3114 817.324C45.3146 816.273 44.368 815.178 43.4716 814.039C42.5753 812.899 41.7332 811.72 40.9454 810.501C40.1575 809.282 39.4273 808.03 38.7546 806.742C38.082 805.455 37.4698 804.139 36.9181 802.795C31.0594 788.166 33.6474 772.454 39.6089 758.381C41.4258 752.384 45.3568 745.934 48.6642 740.656C50.0223 736.82 54.0452 731.442 56.3423 727.842C63.7171 714.986 70.855 701.734 74.8283 687.35L75.0723 687.144C75.8165 683.4 76.945 679.686 77.9327 675.997C80.6041 666.025 83.4183 656.173 87.8877 646.833C93.397 635.32 103.101 624.538 115.263 620.28C121.543 616.871 131.612 616.527 138.633 617.186C143.852 617.567 148.612 618.802 153.58 620.392C154.458 618.148 155.864 616.061 156.6 613.773C157.709 610.325 157.827 606.949 159.212 603.473C160.805 598.711 164.724 593.267 168.725 590.292Z" fill="#4C2C42"/>
<path d="M129.24 628.275C129.197 628.023 129.088 627.773 129.112 627.519C129.195 626.642 135.032 621.393 136.021 619.795C136.276 619.385 136.403 619.128 136.808 618.848C137.445 618.887 138.058 618.911 138.695 618.845L139.201 618.789C144.084 619.049 148.441 620.279 153.027 621.883C144.972 623.371 137.029 625.732 129.24 628.275Z" fill="#FEFEFE"/>
<path d="M253.77 665.237C256.392 663.465 258.646 661.488 260.907 659.283C262.296 662.76 263.441 666.306 264.59 669.87C265.456 673.235 266.383 676.591 266.97 680.02C265.23 680.642 260.955 681.704 260.135 683.369C260.082 683.476 260.054 683.594 260.014 683.706C259.628 677.794 256.97 670.104 253.77 665.237Z" fill="#F8F8F8"/>
<path d="M243.354 604.495C250.766 604.612 256.979 607.384 262.873 611.739C268.131 616.661 271.961 622.571 272.962 629.891C272.998 630.432 273.021 630.972 273.029 631.514C273.038 632.055 273.033 632.596 273.015 633.137C272.996 633.678 272.964 634.218 272.918 634.758C272.872 635.297 272.813 635.835 272.74 636.371C272.667 636.907 272.581 637.441 272.481 637.973C272.382 638.505 272.269 639.034 272.142 639.56C272.016 640.086 271.876 640.608 271.723 641.127C271.57 641.646 271.405 642.161 271.226 642.671C271.047 643.181 270.856 643.686 270.651 644.187C270.447 644.688 270.23 645.183 270.001 645.672C269.772 646.161 269.531 646.644 269.277 647.121C269.024 647.598 268.758 648.068 268.481 648.531C268.204 648.995 267.915 649.451 267.615 649.899C267.315 650.347 267.004 650.788 266.681 651.22C266.358 651.653 266.025 652.076 265.682 652.492C265.338 652.907 264.984 653.313 264.62 653.71C264.324 654.029 264.031 654.26 263.688 654.523L264.165 653.615C268.592 645.096 271.723 636.64 268.686 627.016C268.602 626.747 268.514 626.48 268.423 626.213C268.332 625.947 268.237 625.682 268.139 625.418C268.04 625.154 267.938 624.892 267.833 624.631C267.728 624.37 267.619 624.111 267.507 623.853C267.394 623.594 267.279 623.338 267.16 623.083C267.041 622.828 266.919 622.575 266.793 622.323C266.667 622.072 266.538 621.822 266.406 621.574C266.273 621.326 266.138 621.08 265.999 620.836C265.86 620.591 265.718 620.349 265.572 620.108C265.427 619.868 265.279 619.629 265.127 619.393C264.975 619.157 264.82 618.922 264.662 618.69C264.505 618.458 264.344 618.228 264.179 618C264.015 617.772 263.848 617.546 263.678 617.323C263.508 617.099 263.335 616.878 263.159 616.66C262.983 616.441 262.805 616.224 262.623 616.011C262.441 615.797 262.257 615.585 262.07 615.377C261.882 615.168 261.692 614.961 261.499 614.758C261.307 614.554 261.111 614.353 260.913 614.155C260.715 613.956 260.514 613.761 260.311 613.568C260.107 613.375 259.901 613.185 259.693 612.998C259.485 612.81 259.274 612.625 259.061 612.444C258.847 612.262 258.632 612.083 258.414 611.908C258.196 611.732 257.975 611.559 257.753 611.389C257.53 611.219 257.305 611.053 257.078 610.889C256.851 610.725 256.622 610.565 256.391 610.407C256.159 610.249 255.926 610.095 255.691 609.944C255.455 609.793 255.217 609.645 254.978 609.5C254.739 609.355 254.498 609.214 254.254 609.076C254.011 608.938 253.766 608.803 253.519 608.671C253.273 608.54 253.024 608.412 252.774 608.287C252.524 608.162 252.272 608.041 252.019 607.923C251.766 607.805 251.511 607.69 251.254 607.579C249.046 606.62 245.451 605.74 243.597 604.661C243.512 604.611 243.435 604.55 243.354 604.495Z" fill="#F8F8F8"/>
<path d="M170.342 590.676C177.783 585.721 185.218 582.823 194.235 582.529C200.598 582.321 213.647 584.233 218.421 588.763C218.249 588.852 218.099 589.026 217.906 589.03C217.456 589.04 209.375 586.919 207.52 586.693C201.062 585.907 194.254 586.266 187.985 588.076C178.02 590.952 169.573 597.38 162.732 605.077C161.733 606.202 160.546 608.698 159.264 609.283C159.158 608.652 159.195 608.18 159.267 607.551C161.878 599.16 164.599 596.763 170.342 590.676Z" fill="#FEFEFE"/>
<path d="M260.014 683.706C260.054 683.594 260.082 683.476 260.135 683.369C260.955 681.704 265.23 680.643 266.97 680.02C267.189 681.281 267.382 682.546 267.549 683.815C267.715 685.084 267.855 686.356 267.968 687.63C268.082 688.905 268.169 690.182 268.228 691.461C268.288 692.739 268.322 694.018 268.328 695.298C268.335 696.578 268.315 697.858 268.269 699.137C268.222 700.416 268.149 701.694 268.048 702.97C267.948 704.245 267.822 705.519 267.669 706.789C267.516 708.06 267.336 709.327 267.13 710.59C265.687 718.255 263.615 725.085 260.396 732.169C260.013 732.735 259.941 732.895 259.335 733.181C255.982 730.686 252.542 728.306 248.82 726.405C244.356 724.493 239.727 723.628 234.96 722.933C241.532 719.873 247.196 716.6 252.006 710.983C258.816 703.031 260.734 694.005 260.014 683.706Z" fill="#FEFEFE"/>
<path d="M165.476 670.088C165.853 671.552 166.254 673.009 166.679 674.46C167.714 679.203 169.648 683.714 171.88 688.001C175.566 694.628 180.685 701.486 187.198 705.482L188.089 706.475C185.679 706.605 183.248 706.208 180.858 705.929L182.096 706.58L182.114 706.893L179.666 707.147L176.779 707.079C178.624 707.954 180.516 708.779 182.324 709.727C182.208 710.128 182.133 710.472 181.91 710.828C178.685 709.41 175.202 707.526 171.8 706.675L171.37 706.978C170.844 707.461 170.559 707.863 169.855 708.017C167.947 714.212 166.581 720.643 165.051 726.946C163.947 731.488 162.561 736.125 161.74 740.719L161.524 740.835L160.97 740.625C156.226 733.245 152.06 725.259 148.534 717.213C151.059 717.327 154.035 715.989 155.901 714.311C163.911 707.104 164.851 680.546 165.476 670.088Z" fill="#F1DBCC"/>
<path d="M169.855 708.017C170.075 706.865 170.233 705.741 171.15 704.955C172.409 704.499 174.032 705.01 175.327 705.229C177.174 705.43 179.018 705.664 180.858 705.929L182.096 706.58L182.114 706.893L179.666 707.147L176.779 707.079C178.624 707.954 180.516 708.779 182.324 709.727C182.208 710.128 182.133 710.472 181.91 710.828C178.685 709.41 175.201 707.526 171.799 706.675L171.369 706.978C170.844 707.461 170.559 707.863 169.855 708.017Z" fill="#422038"/>
<path d="M118.093 620.652C119.69 620.535 121.505 619.886 123.111 619.568C127.321 618.735 135.022 617.503 139.201 618.789L138.695 618.845C138.058 618.911 137.445 618.887 136.808 618.848C136.403 619.128 136.276 619.385 136.021 619.795C135.032 621.393 129.195 626.641 129.112 627.519C129.088 627.773 129.197 628.023 129.24 628.275C114.303 634.739 101.244 642.924 95.0041 658.977C93.7242 662.27 93.6435 666.025 92.6874 668.745C90.6749 670.328 88.639 671.906 86.8068 673.701C84.0633 676.39 81.1102 680.221 77.8966 682.25C79.0775 677.016 80.4653 671.839 82.0598 666.718C83.6544 661.598 85.4505 656.55 87.4482 651.576C93.6892 636.391 103.023 626.952 118.093 620.652Z" fill="#F8F8F8"/>
<path d="M77.8967 682.25C81.1103 680.222 84.0634 676.39 86.8069 673.702C88.639 671.906 90.675 670.328 92.6875 668.745C92.3392 675.259 92.2365 681.899 91.2423 688.351C88.5032 706.115 78.7977 721.099 65.7142 732.952C53.8915 743.664 49.0272 747.056 40.5085 761.065L40.4743 760.615C41.5742 755.049 46.498 747.334 49.3378 742.247C52.3355 738.069 54.9297 733.202 57.533 728.75C64.1417 717.972 73.6873 699.818 76.226 687.529C76.8714 685.817 77.351 684 77.8967 682.25Z" fill="#FEFEFE"/>
<path d="M327.234 693.348C328.849 693.561 330.525 693.922 332.08 694.41C337.696 696.17 341.009 699.956 343.724 705.026C336.471 709.751 329.322 714.632 322.278 719.67C312.467 726.464 302.62 733.205 292.739 739.894C287.77 743.296 282.877 746.888 277.815 750.142C275.607 750.145 273.341 750.254 271.146 750.01C267.41 747.741 262.95 746.026 258.936 744.284L256.118 742.931C250.147 740.155 244.15 737.112 238.005 734.768C235.949 733.666 233.717 732.801 231.583 731.856C219.882 726.481 208.136 721.203 196.348 716.022C191.696 713.978 187.094 711.442 182.324 709.726C180.516 708.779 178.624 707.954 176.779 707.079L179.666 707.147C182.411 707.576 185.352 707.813 188.131 707.782C192.74 708.193 194.872 710.603 198.497 711.164C201.848 712.885 205.526 714.164 209.024 715.57C216.036 718.386 223.036 721.268 230.36 723.172C236.522 724.773 242.784 725.255 248.696 727.861C256.054 731.686 263.085 737.356 268.318 743.849C269.006 744.703 270.102 745.829 270.506 746.843C270.917 747.108 271.341 747.281 271.792 747.467C273.475 746.954 275.414 742.844 276.43 741.33C286.257 728.764 299.415 725.497 311.76 716.866C320.085 711.046 325.43 703.42 327.234 693.348Z" fill="#FEFEFE"/>
<path d="M240.192 632.573C245.359 640.828 246.49 649.814 244.332 659.331C244.021 660.703 243.664 662.062 243.261 663.409C241.748 660.753 240.344 658.955 237.264 658.081C234.085 657.178 229.747 657.338 226.834 659.011C226.246 659.349 225.94 659.629 225.602 660.213L225.828 660.709C227.3 661.154 228.909 660.962 230.437 660.99C235.015 661.075 239.076 662.728 242.614 665.564C241.002 668.844 239.189 672.016 237.585 675.296C235.548 679.459 233.788 683.73 231.264 687.632C225.811 696.065 215.973 704.914 206.439 708.216C203.989 709.066 201.572 709.425 199.013 709.731C195.01 708.919 191.616 706.824 188.255 704.583C181.865 699.578 177.061 694.205 173.095 687.064C170.817 682.37 169.111 677.943 167.676 672.921C167.081 669.893 166.183 666.754 165.977 663.675C162.52 661.812 159.989 659.425 158.78 655.515C157.489 651.343 158.439 646.107 160.522 642.365C161.241 641.073 162.305 639.525 163.811 639.149C164.95 638.865 166.077 639.293 167.018 639.933C169.404 641.553 170.262 644.222 171.855 646.48C178.228 649.377 186.03 649.456 192.553 646.912C195.3 645.841 197.625 644.289 199.996 642.552C210.51 645.422 222.582 646.177 232.396 640.556C235.904 638.546 237.999 635.922 240.192 632.573Z" fill="#F1DBCC"/>
<path d="M214.624 680.229C214.113 680.457 213.604 680.688 213.066 680.848C211.348 681.359 209.108 681.3 207.541 680.432C207.149 679.877 207.013 679.913 207.079 679.2C209.271 678.785 211.18 679.88 213.504 679.287C213.612 679.259 213.718 679.229 213.825 679.201L214.624 680.229Z" fill="#422038"/>
<path d="M163.646 654.811L164.362 655.087C165.785 656.99 167.583 657.928 169.588 659.085L169.779 660.008C169.706 660.011 169.633 660.017 169.559 660.018C169.437 660.02 169.315 660.015 169.193 660.014C168.9 660.013 168.61 660.013 168.32 659.968C166.815 659.733 164.975 658.573 164.079 657.328C163.402 656.388 163.441 655.87 163.646 654.811Z" fill="#422038"/>
<path d="M215.539 676.586C215.242 673.807 214.804 666.482 216.356 664.282C216.412 664.202 216.487 664.137 216.553 664.064L217.146 664.079C217.643 664.717 217.582 665.288 217.48 666.091C217.307 667.438 216.955 668.747 216.916 670.115C216.856 672.209 217.175 674.397 216.8 676.46C216.473 678.262 215.991 679.048 214.624 680.229L213.825 679.2C214.497 678.383 215.004 677.496 215.539 676.586Z" fill="#4C2C42"/>
<path d="M226.077 670.447C227.391 670.377 228.512 670.309 229.523 671.278C229.955 671.692 230.224 672.251 230.2 672.867C230.143 674.31 229.045 675.162 228.028 676.001C227.633 676.055 227.221 676.113 226.82 676.092C226.042 676.05 225.278 675.61 224.807 674.989C224.355 674.392 224.25 673.652 224.34 672.922C224.49 671.695 225.149 671.164 226.077 670.447Z" fill="#422038"/>
<path d="M198.839 683.85C201.263 684.675 202.872 687.869 205.28 689.193C205.395 689.256 205.514 689.311 205.63 689.372C207.552 690.368 210.148 689.804 212.258 690.064C212.929 690.147 212.972 690.167 213.381 690.672L213.137 691.439C212.233 691.623 211.338 691.75 210.414 691.769C207.172 691.834 203.293 690.402 200.995 688.074C199.872 686.937 198.833 685.501 198.839 683.85Z" fill="#4C2C42"/>
<path d="M202.65 661.522C203.67 661.814 204.622 662.317 205.211 663.243C205.594 663.845 205.682 664.505 205.526 665.199C205.216 666.574 204.229 667.202 203.149 667.954C202.823 667.925 202.878 667.937 202.495 667.86C201.546 667.666 200.751 667.235 200.265 666.358C199.806 665.532 199.81 664.662 200.132 663.788C200.617 662.475 201.436 662.077 202.65 661.522Z" fill="#422038"/>
<path d="M197.519 647.399C200.591 647.155 203.534 647.161 206.52 648.03C209.26 648.826 212.493 650.422 213.834 653.089C214.339 654.093 214.567 654.937 214.229 656.004C213.354 656.182 213.175 655.964 212.394 655.574C209.997 653.953 207.455 652.777 204.713 651.883C202.695 651.224 194.884 650.165 193.825 649.082L194.003 648.599C195.078 647.88 196.281 647.685 197.519 647.399Z" fill="#422038"/>
<path d="M73.4408 830.393C72.3959 827.938 72.8159 782.351 73.4387 776.794C73.585 775.511 73.7727 774.235 74.0015 772.964C74.2303 771.694 74.4998 770.433 74.8098 769.18C75.1198 767.927 75.4699 766.686 75.8602 765.456C76.2504 764.227 76.6797 763.011 77.148 761.81C85.1833 741.746 103.55 732.403 121.725 723.489C129.505 719.673 137.349 715.774 145.308 712.358C145.799 714.006 146.489 715.619 147.106 717.223C151.046 726.319 155.519 734.981 160.948 743.264C160.27 746.693 159.351 750.075 158.49 753.461L157.843 756.22C155.968 763.751 153.833 771.263 152.153 778.837L150.939 783.607C149.565 788.693 146.29 798.595 145.873 803.46C145.299 805.627 144.738 807.782 144.296 809.982C149.772 812.882 155.325 815.973 161.126 818.155C154.254 822.852 154.952 823.729 152.543 831.215C148.786 838.896 142.219 843.077 135.475 847.847L135.62 837.557C135.572 835.743 135.884 832.561 135.065 830.958C134.607 831.396 134.6 831.701 134.424 832.292C133.948 831.864 133.415 831.762 132.817 831.568C133.902 831.245 134.049 831.247 134.721 830.348C131.275 829.883 127.514 830.204 124.025 830.228L104.502 830.346C98.5171 830.392 92.5327 830.383 86.5484 830.318C82.2057 830.27 77.7649 830.021 73.4408 830.393Z" fill="#F8F8F8"/>
<path d="M135.76 788.096C132.691 784.584 123.1 773.763 121.722 770.13L121.943 769.979C124.681 771.042 133.421 783.047 135.757 785.949C135.811 783.149 135.806 780.34 136.116 777.555C136.438 780.708 136.437 783.918 135.728 787.023C136.063 787.502 136.116 787.376 136.013 788.004L135.76 788.096Z" fill="#4C2C42"/>
<path d="M136.116 777.555C136.075 775.855 135.695 773.174 136.684 771.721L137.248 771.618L137.645 771.941C137.858 776.396 137.421 781.026 137.268 785.489L136.514 809.505C136.29 815.374 136.109 821.244 135.97 827.115C135.887 830.557 135.983 834.138 135.62 837.557C135.572 835.743 135.884 832.56 135.065 830.958C134.607 831.396 134.6 831.701 134.424 832.292C133.948 831.864 133.415 831.762 132.817 831.568C133.901 831.244 134.049 831.247 134.721 830.348C134.183 823.339 134.948 813.991 135.186 806.768C135.39 800.612 135.175 794.212 135.76 788.096L136.013 788.004C136.116 787.376 136.063 787.502 135.728 787.022C136.437 783.918 136.438 780.708 136.116 777.555Z" fill="#422038"/>
<path d="M171.369 706.978L171.799 706.675C175.201 707.526 178.685 709.41 181.91 710.828C182.133 710.472 182.208 710.128 182.324 709.727C187.094 711.443 191.696 713.979 196.348 716.023C208.136 721.203 219.881 726.481 231.583 731.857C233.717 732.801 235.949 733.667 238.005 734.768C244.15 737.112 250.147 740.155 256.118 742.931L258.936 744.284C262.949 746.026 267.41 747.741 271.146 750.01C270.971 750.457 270.727 750.909 270.725 751.392C269.643 754.437 269.035 757.737 268.278 760.886C266.982 766.456 265.603 772.006 264.142 777.535C260.291 792.028 256.831 806.598 253.196 821.145C250.333 832.608 247.227 844.053 244.635 855.579C234.067 850.853 223.057 846.43 212.163 842.533C215.989 837.134 220.589 832.019 223.931 826.311C224.021 826.18 224.112 826.05 224.2 825.918C225.511 823.953 227.082 821.127 226.497 818.694C226.168 817.329 225.339 816.641 224.199 815.942L223.818 815.868C224.109 814.697 226.577 812.573 227.48 811.594C229.7 809.135 232.8 806.13 233.708 802.87C234.045 802.161 234.062 801.175 233.858 800.428C233.425 798.847 231.834 797.829 230.476 797.115C230.369 797.06 230.262 797.006 230.155 796.951C230.103 796.074 232.255 793.138 232.495 791.021L232.538 790.629L231.015 789.518C230.248 788.261 229.326 787.246 227.861 786.865C225.484 786.249 223.374 787.537 221.442 788.734L220.104 788.022C219.708 788.275 219.944 788.196 219.371 788.166C219.202 787.128 219.083 785.986 218.764 784.983C218.478 784.085 217.807 783.627 217.039 783.175C214.486 782.18 212.105 782.065 209.553 783.196C208.434 783.692 207.331 784.382 206.314 785.066C195.019 793.216 182.891 801.528 172.12 810.348C168.934 812.651 165.409 815.803 161.917 817.516C156.817 814.466 151.19 811.877 145.832 809.307L146.733 805.617C146.198 805.912 146.463 805.895 145.945 805.744C145.949 804.98 145.916 804.224 145.873 803.46C146.29 798.595 149.565 788.693 150.939 783.607L152.153 778.837L153.33 779.808C155.1 772.353 157.092 764.942 158.981 757.516L159.67 754.618C163.781 738.793 167.436 722.849 171.369 706.978Z" fill="#FF4D00"/>
<path d="M220.104 788.022C222.529 786.413 225.231 784.719 228.281 785.414C229.716 785.74 230.861 786.707 231.596 787.977C232.077 788.807 232.353 789.694 232.538 790.629L231.015 789.518C230.248 788.261 229.326 787.246 227.861 786.865C225.484 786.249 223.374 787.537 221.442 788.734L220.104 788.022Z" fill="#422038"/>
<path d="M152.153 778.837L153.33 779.808L151.959 785.158C150.182 791.962 148.627 798.849 146.733 805.617C146.198 805.912 146.463 805.896 145.945 805.744C145.949 804.98 145.916 804.224 145.873 803.46C146.29 798.595 149.565 788.693 150.939 783.607L152.153 778.837Z" fill="#422038"/>
<path d="M182.324 709.727C187.094 711.443 191.696 713.979 196.348 716.023C208.136 721.203 219.882 726.481 231.583 731.857C233.717 732.801 235.949 733.667 238.005 734.768C244.15 737.112 250.147 740.155 256.118 742.931L258.936 744.284C262.95 746.026 267.41 747.741 271.146 750.01C270.971 750.457 270.727 750.909 270.725 751.392C267.434 749.121 260.954 746.836 257.061 745.012L254.813 743.996C248.539 740.971 242.082 738.327 235.77 735.379C233.962 734.85 232.059 733.707 230.334 732.903C214.237 725.507 197.747 718.767 181.91 710.828C182.133 710.472 182.208 710.128 182.324 709.727Z" fill="#4C2C42"/>
<path d="M206.315 785.066C207.331 784.382 208.434 783.692 209.553 783.196C212.105 782.065 214.486 782.18 217.039 783.175C217.807 783.627 218.478 784.085 218.764 784.983C219.083 785.986 219.202 787.128 219.371 788.166C219.944 788.197 219.708 788.275 220.104 788.022L221.442 788.734C223.374 787.537 225.484 786.249 227.861 786.865C229.326 787.246 230.248 788.261 231.015 789.518L232.538 790.629L232.496 791.021C232.256 793.138 230.103 796.073 230.155 796.951C230.262 797.006 230.369 797.06 230.476 797.115C231.834 797.829 233.425 798.847 233.858 800.428C234.062 801.175 234.046 802.161 233.708 802.87C232.8 806.13 229.7 809.135 227.48 811.594C226.578 812.573 224.109 814.697 223.818 815.868L224.199 815.942C225.339 816.641 226.169 817.329 226.497 818.694C227.083 821.127 225.511 823.952 224.2 825.918C224.112 826.05 224.021 826.18 223.931 826.311L222.353 826.129C218.557 831.883 214.139 837.187 210.061 842.735C209.462 843.387 208.889 844.023 208.374 844.744C204.861 848.846 201.437 853.009 197.401 856.606C193.326 860.237 188.704 863.438 184.922 867.373C181.858 870.561 179.362 874.328 176.677 877.842C174.274 880.94 171.746 883.929 169.091 886.81C166.524 889.44 163.93 892.044 161.309 894.621C152.464 902.623 143.135 910.173 133.017 916.476L131.108 917.469C118.585 913.474 106.131 909.21 92.8158 909.542C89.1732 909.633 85.674 910.581 82.1106 910.743C81.2056 910.214 81.2071 909.829 80.8183 908.873L80.6308 909.014L79.3359 908.39C75.4809 894.781 74.1504 879.786 73.7926 865.653C73.8247 865.102 73.8407 864.532 73.9274 863.986C74.0682 863.099 74.2901 862.914 74.9827 862.374C74.6223 852.174 73.8552 841.96 73.2288 831.772L115.983 831.863C120.114 831.867 129.322 832.488 132.817 831.568C133.415 831.762 133.947 831.864 134.424 832.292C134.599 831.701 134.606 831.396 135.064 830.958C135.884 832.56 135.572 835.743 135.62 837.557L135.474 847.847C142.219 843.077 148.785 838.896 152.543 831.215C154.952 823.729 154.254 822.852 161.126 818.155C155.325 815.973 149.772 812.882 144.296 809.982C144.738 807.782 145.299 805.627 145.873 803.46C145.915 804.224 145.949 804.98 145.945 805.744C146.463 805.896 146.198 805.912 146.733 805.617L145.832 809.307C151.19 811.877 156.817 814.466 161.916 817.516C165.409 815.803 168.933 812.651 172.12 810.348C182.891 801.527 195.019 793.216 206.315 785.066Z" fill="#F1DBCC"/>
<path d="M227.557 798.986C227.088 799.717 192.756 828.139 192.631 828.162C192.149 828.25 192.114 828.094 191.73 827.837C192.271 825.864 224.399 799.8 227.54 797.221L226.926 798.626L227.557 798.986Z" fill="#422038"/>
<path d="M73.7925 865.653C73.8247 865.102 73.8407 864.532 73.9273 863.986C74.0682 863.099 74.2901 862.914 74.9826 862.374C75.5518 872.971 76.2264 883.755 77.8671 894.239C78.6403 899.181 79.8199 903.983 80.8181 908.873L80.6307 909.014L79.3358 908.39C75.4807 894.781 74.1503 879.786 73.7925 865.653Z" fill="#422038"/>
<path d="M231.015 789.518L232.538 790.629L232.495 791.021C232.255 793.138 230.103 796.073 230.155 796.951C230.262 797.006 230.369 797.06 230.476 797.115C231.834 797.829 233.425 798.847 233.858 800.427C234.062 801.175 234.045 802.161 233.708 802.87C232.8 806.13 229.7 809.135 227.48 811.594C226.577 812.573 224.109 814.697 223.818 815.868L224.199 815.942C225.339 816.641 226.168 817.329 226.497 818.694C227.083 821.127 225.511 823.952 224.2 825.918C224.112 826.05 224.021 826.18 223.931 826.311L222.353 826.129C223.579 824.397 225.244 821.923 225.158 819.72C225.114 818.571 224.594 818.183 223.795 817.503C223.197 817.637 222.523 817.772 221.998 818.101C220.294 819.167 218.565 821.349 217.12 822.782C214.37 825.507 200.221 839.814 198.33 839.977L197.962 839.341C198.3 837.757 202.836 834.423 204.115 833.246C211.855 826.134 219.106 818.605 226.238 810.88C228.385 808.287 230.546 805.715 232.419 802.909C232.406 802.246 232.397 801.562 232.242 800.914C232.061 800.156 231.589 799.294 230.895 798.901C229.841 798.303 228.623 798.634 227.556 798.986L226.926 798.626L227.539 797.221C229.271 794.158 231.229 793.48 231.015 789.518Z" fill="#4C2C42"/>
<path d="M206.315 785.066C207.331 784.382 208.434 783.692 209.553 783.196C212.105 782.065 214.486 782.18 217.039 783.175C217.808 783.627 218.479 784.085 218.764 784.983C219.083 785.986 219.202 787.128 219.371 788.166C219.944 788.197 219.708 788.275 220.104 788.022L221.442 788.734C216.444 792.715 187.446 816.294 184.218 816.71L184.045 816.206C184.923 814.566 213.542 793.365 217.858 789.696C217.865 788.789 217.881 787.862 217.814 786.958C217.716 785.649 217.218 785.052 216.27 784.207C213.636 783.438 211.658 783.636 209.245 784.987C208.648 785.321 208.078 785.701 207.514 786.087C195.731 794.474 184.371 803.467 172.568 811.797C168.648 814.66 157.37 821.653 155.625 825.194C154.568 827.336 154.629 829.941 153.605 832.134C151.617 839.287 139.816 846.604 134.05 850.765C132.089 852.981 91.4963 881.188 90.852 881.298C90.1986 881.41 90.0337 881.336 89.5185 880.992C89.6823 880.661 89.8417 880.424 90.1393 880.199C99.8499 872.899 110.098 866.191 120.03 859.192C123.597 856.678 130.002 851.323 133.491 849.675C134.622 847.46 134.183 835.672 134.424 832.292C134.599 831.701 134.606 831.396 135.064 830.958C135.884 832.561 135.572 835.743 135.62 837.557L135.474 847.847C142.219 843.077 148.785 838.896 152.543 831.215C154.952 823.729 154.253 822.852 161.126 818.155C155.325 815.973 149.772 812.882 144.296 809.982C144.738 807.782 145.299 805.627 145.873 803.46C145.915 804.224 145.949 804.98 145.944 805.744C146.463 805.896 146.198 805.912 146.733 805.617L145.832 809.307C151.19 811.877 156.817 814.466 161.916 817.517C165.409 815.803 168.933 812.651 172.12 810.348C182.891 801.527 195.019 793.216 206.315 785.066Z" fill="#4C2C42"/>
<path d="M224.036 590.728C236.537 582.512 249.739 574.678 263.348 568.523C312.023 546.509 366.551 543.034 418.383 554.145C429.352 556.496 439.992 560.15 450.441 564.212C467.586 570.876 485.264 579.894 500.427 590.38C527.593 609.164 552.483 636.499 570.322 664.33C571.121 665.591 571.907 666.861 572.683 668.137C573.461 669.414 574.224 670.699 574.973 671.991C575.724 673.283 576.463 674.582 577.188 675.888C577.912 677.195 578.626 678.508 579.327 679.829C580.026 681.149 580.712 682.476 581.387 683.811C582.062 685.145 582.723 686.485 583.371 687.833C584.019 689.18 584.654 690.533 585.275 691.893C585.9 693.252 586.51 694.618 587.105 695.99C587.699 697.361 588.282 698.738 588.853 700.121C589.421 701.504 589.978 702.893 590.522 704.287C591.063 705.681 591.591 707.08 592.106 708.485C592.623 709.889 593.126 711.299 593.614 712.713C594.102 714.128 594.576 715.546 595.037 716.97C595.498 718.394 595.944 719.822 596.375 721.255C596.809 722.687 597.229 724.124 597.633 725.564C598.04 727.005 598.433 728.45 598.81 729.898C599.188 731.347 599.552 732.799 599.903 734.255C600.25 735.71 600.584 737.169 600.905 738.631C601.229 740.094 601.536 741.559 601.827 743.027C602.121 744.495 602.4 745.966 602.664 747.44C602.931 748.914 603.182 750.39 603.415 751.869C603.653 753.348 603.875 754.828 604.082 756.312C604.289 757.795 604.483 759.28 604.663 760.767C604.84 762.254 605.004 763.742 605.154 765.232C605.305 766.722 605.44 768.214 605.56 769.707C605.684 771.199 605.791 772.693 605.881 774.188C605.974 775.683 606.053 777.179 606.116 778.675C606.18 780.172 606.23 781.669 606.267 783.166C606.3 784.664 606.32 786.162 606.327 787.66C606.33 789.157 606.32 790.655 606.297 792.153C606.273 793.65 606.237 795.147 606.187 796.644C606.133 798.141 606.066 799.637 605.986 801.133C605.55 809.394 605.189 818.086 603.496 826.199C603.27 827.275 602.97 828.253 602.448 829.222C602.944 829.569 603.105 829.577 603.345 830.158C606.608 831.249 609.444 835.984 610.887 838.903C616.169 849.577 615.197 862.761 611.498 873.772C610.566 876.544 608.903 881.994 606.497 883.604C606.623 885.364 603.987 889.239 602.784 890.557C602.508 890.859 602.203 891.036 601.852 891.232C601.591 896.13 578.861 916.792 574.582 920.673C573.519 921.633 572.512 922.709 571.139 923.175C571.044 923.511 564.469 929.885 563.592 930.442C569.069 930.454 574.717 930.191 580.174 930.518L596.706 930.467C597.913 933.277 597.212 938.703 597.162 941.775C596.921 957.003 597.252 970.035 591.589 984.559C588.512 992.461 578.225 1010.22 571.124 1014.21C581.326 1014.11 591.529 1014.06 601.732 1014.06C607.059 1014.05 612.716 1013.63 617.988 1014.2C618.79 1014.29 619.406 1014.4 619.997 1014.99C620.659 1015.65 621.015 1016.43 621 1017.37C620.473 1018.28 620.063 1018.63 619.02 1018.92C615.502 1019.89 601.126 1019.31 596.51 1019.32L529.657 1019.34L191.627 1019.16L77.1489 1019.18L35.3102 1019.28C29.1023 1019.28 22.7663 1019.55 16.5713 1019.28C16.0215 1019.25 15.692 1019.15 15.2165 1018.86C14.5708 1018.47 14.1503 1017.74 14.0349 1017C13.8954 1016.11 14.1869 1015.58 14.6739 1014.86C15.4167 1014.32 16.1071 1014.18 17.0129 1014.09C20.7086 1013.75 24.6415 1013.99 28.3629 1013.99L50.6765 1013.97C58.1701 1014.3 65.8116 1013.97 73.3202 1013.99C79.6367 1014 86.1291 1014.44 92.4236 1013.94C78.8699 1009.88 68.4517 1004.87 58.459 994.453C48.4784 984.051 42.5088 969.534 42.8127 954.986C43.1793 937.435 54.0447 921.936 69.6454 914.565C71.4158 913.729 78.8713 911.58 79.6155 910.853C79.8961 909.852 79.6195 909.374 79.3358 908.39L80.6307 909.014L80.8182 908.873C81.207 909.829 81.2055 910.214 82.1105 910.744C85.6739 910.581 89.1732 909.633 92.8157 909.542C106.131 909.21 118.585 913.474 131.108 917.469L133.016 916.476C143.135 910.173 152.464 902.623 161.309 894.621C163.929 892.044 166.524 889.441 169.091 886.81C171.746 883.93 174.274 880.94 176.677 877.842C179.362 874.328 181.858 870.561 184.922 867.373C188.703 863.438 193.326 860.237 197.401 856.606C201.437 853.01 204.861 848.846 208.373 844.744C208.889 844.023 209.462 843.387 210.061 842.736C214.139 837.188 218.557 831.884 222.353 826.13L223.931 826.312C220.589 832.019 215.989 837.134 212.163 842.533C223.057 846.43 234.066 850.854 244.635 855.579C247.227 844.053 250.332 832.608 253.196 821.146C256.831 806.598 260.291 792.028 264.142 777.535C265.603 772.007 266.982 766.457 268.278 760.886C269.035 757.737 269.643 754.437 270.725 751.392C270.727 750.909 270.971 750.457 271.146 750.01C273.341 750.254 275.607 750.146 277.814 750.143C282.877 746.889 287.77 743.297 292.739 739.894C302.62 733.205 312.467 726.464 322.278 719.67L323.5 720.518C326.404 718.969 329.272 716.563 332.009 714.665C337.203 711.049 342.452 707.516 347.757 704.067L346.563 703.059L345.118 704.17C341.32 698.113 337.25 694.105 330.111 692.509C328.737 692.202 327.362 691.984 325.966 691.814C324.067 702.634 320.265 709.106 311.209 715.491C299.508 723.739 285.478 727.774 276.157 739.37C274.58 741.387 273.183 743.451 271.811 745.608C270.238 743.779 261.446 735.324 261.117 734.249C261.006 733.887 261.482 733.11 261.638 732.754C264.708 726.796 266.438 720.223 267.946 713.718C270.355 702.438 270.169 691.26 268.429 679.906C267.57 675.423 266.474 671.001 265.138 666.639C264.169 663.898 263.257 661.118 262.105 658.448C263.616 657.085 264.989 655.474 266.258 653.879C272.15 646.48 275.172 638.385 274.196 628.91C272.788 621.267 268.994 614.664 262.759 610.075C262.672 609.989 262.591 609.896 262.499 609.815C256.835 604.832 248.625 603.083 241.329 603.169C239.509 603.287 237.721 603.44 235.917 603.714C235.135 602.459 234.297 601.243 233.404 600.066C232.511 598.889 231.566 597.756 230.57 596.667C229.574 595.578 228.53 594.538 227.439 593.546C226.347 592.553 225.213 591.614 224.036 590.728Z" fill="#4C2C42"/>
<path d="M479.072 938.059C479.873 940.013 480.583 941.969 481.228 943.982C478.459 943.96 475.648 943.837 472.883 943.926C471.605 943.903 470.357 943.787 469.088 943.649C472.384 941.736 475.659 939.751 479.072 938.059Z" fill="#FEFEFE"/>
<path d="M314.557 807.484C312.334 806.118 309.503 804.597 307.917 802.463C307.154 801.436 307.062 800.653 307.278 799.417C307.608 798.948 307.661 798.723 308.207 798.49C311.27 797.189 316.621 801.153 319.352 802.341L319.585 802.44C319.372 804.256 317.623 806.627 316.285 807.839C315.452 808.074 315.314 807.856 314.557 807.484Z" fill="#F1DBCC"/>
<path d="M384.275 887.993C381.187 882.498 376.036 876.423 372.235 871.159C365.078 861.417 358.347 851.383 352.042 841.058C350.152 837.953 347.374 834.262 346.383 830.759L346.934 830.181L347.671 830.21C349.213 831.522 356.966 845.501 358.753 848.24C364.374 856.813 370.197 865.245 376.222 873.534C379.691 878.347 383.425 883.081 386.631 888.074C385.908 888.578 385.912 888.594 385.04 888.525L384.275 887.993Z" fill="#FEFEFE"/>
<path d="M503.705 982.632L508.646 982.638C508.811 982.942 508.891 983.043 508.996 983.355C509.563 985.065 509.377 1009.96 509.122 1013.32C509.077 1013.9 508.906 1014.28 508.646 1014.79C507.373 1015.24 505.213 1014.97 503.83 1014.97L503.705 982.632Z" fill="#7C9D8C"/>
<path d="M454.959 900.013C456.096 899.245 458.695 897.041 459.965 897.274C461.883 902.72 466.8 908.839 469.14 914.695C466.464 917.687 462.075 920.182 458.776 922.481C459.661 912.482 456.031 908.637 454.959 900.013Z" fill="#F8F8F8"/>
<path d="M217.669 943.081C219.9 940.25 228.01 928.476 230.246 927.389L230.694 927.587C230.886 928.9 230.511 929.699 229.746 930.746C226.503 935.191 222.717 939.441 219.771 944.076C224.306 945.353 246.17 951.205 248.654 953.164C249.896 955.471 249.381 958.088 248.698 960.498C248.34 961.762 247.786 962.913 247.075 964.014C247.047 960.832 247.411 957.64 247.303 954.47C222.763 946.489 197.928 939.367 173.447 931.201L173.882 930.699C175.031 930.171 176.385 930.406 177.619 930.471C184.711 932.823 191.824 935.108 198.958 937.326C205.144 939.316 211.369 941.498 217.669 943.081Z" fill="#FEFEFE"/>
<path d="M423.4 982.438C425.161 982.439 427.336 982.211 428.992 982.831L430.231 982.888C430.434 993.516 430.27 1004.17 430.249 1014.8L428.973 1014.9L423.54 1014.85C423.075 1004.1 423.415 993.199 423.4 982.438Z" fill="#FF4D00"/>
<path d="M428.992 982.831L430.231 982.888C430.434 993.516 430.27 1004.17 430.249 1014.8L428.973 1014.9L428.992 982.831Z" fill="#422038"/>
<path d="M548.955 930.461C550.002 926.811 557.814 917.096 560.245 913.076C562.826 908.806 564.935 902.813 567.927 899.098C569.666 902.644 567.676 919.812 566.343 923.714C565.461 926.315 563.978 928.797 561.758 930.461C557.589 930.859 553.149 930.582 548.955 930.461Z" fill="#FEFEFE"/>
<path d="M304.344 777.649C304.454 776.955 304.52 776.942 305.03 776.45C305.873 777.17 306.705 777.912 307.58 778.591C310.837 780.627 325.4 789.732 326.97 791.95C326.803 792.364 326.794 792.403 326.856 792.876L326.704 793.021C325.044 795.258 322.953 799.898 320.6 801.211L319.543 800.915C314.48 798.17 309.237 793.699 305.413 789.377C304.934 788.65 304.473 787.912 304.028 787.164C302.809 785.088 302.549 783.5 303.157 781.143L302.496 781.089L301.306 782.165C301.927 780.424 302.99 779.469 304.32 778.278L304.344 777.649Z" fill="#F1DBCC"/>
<path d="M304.344 777.649C304.454 776.955 304.52 776.942 305.03 776.45C305.873 777.17 306.705 777.912 307.58 778.591C310.837 780.627 325.4 789.732 326.97 791.95C326.803 792.364 326.794 792.403 326.856 792.876L326.704 793.021C324.751 792.142 322.835 790.614 321.062 789.391C316.275 786.089 311.426 782.248 306.206 779.686C304.876 779.912 304.29 780.388 303.214 781.12C303.197 781.132 303.176 781.136 303.157 781.144L302.496 781.089L301.306 782.165C301.927 780.424 302.99 779.469 304.32 778.278L304.344 777.649Z" fill="#422038"/>
<path d="M412.612 890.57C413.364 888.043 414.259 885.548 416.688 884.171C421.072 881.687 426.149 884.506 430.768 883.82C436.45 882.975 439.317 875.56 446.105 877.6C447.741 878.092 449.002 879.287 449.784 880.797C451.36 883.838 450.856 887.316 450.106 890.511C446.004 890.819 441.718 890.563 437.596 890.57L412.612 890.57Z" fill="#F8F8F8"/>
<path d="M392.53 974.795C391.414 973.693 390.321 972.541 389.495 971.195C389.323 970.914 389.158 970.628 389.001 970.339C388.843 970.05 388.693 969.756 388.55 969.46C388.407 969.162 388.271 968.862 388.143 968.558C388.014 968.254 387.894 967.947 387.781 967.638C387.668 967.328 387.563 967.015 387.465 966.7C387.367 966.384 387.277 966.067 387.196 965.747C387.114 965.427 387.04 965.105 386.974 964.782C386.908 964.458 386.85 964.133 386.8 963.807C386.75 963.48 386.708 963.153 386.675 962.824C386.641 962.496 386.616 962.167 386.598 961.837C386.58 961.507 386.571 961.177 386.57 960.847C386.569 960.516 386.576 960.186 386.591 959.856C386.607 959.526 386.63 959.197 386.661 958.868C386.693 958.539 386.733 958.211 386.78 957.884C386.828 957.558 386.884 957.233 386.947 956.908C387.011 956.585 387.083 956.262 387.163 955.942C388.037 952.284 390.105 949.033 393.338 947.081C396.69 945.057 403.838 944.45 407.507 945.36L407.423 945.796C404.81 946.958 403.104 949.408 402.11 952.037C399.645 958.549 399.967 968.958 402.879 975.292C404.143 978.041 405.657 979.587 408.199 981.181C406.277 981.034 404.479 980.778 402.601 980.34C398.948 978.976 395.588 977.236 392.53 974.795Z" fill="#FF4D00"/>
<path d="M385.448 976.887C388.201 976.777 390.944 976.848 393.692 976.769C396.394 978.416 399.143 979.847 402.019 981.159C407.539 983.54 416.023 982.465 422.053 982.399L422.079 1014.8C410.989 1014.78 399.927 1014.71 388.836 1014.85C394.631 1013.4 401.695 1011.12 405.368 1006.01C407.344 1003.26 408.055 999.806 407.52 996.463C406.297 988.827 398.421 983.115 392.014 979.977C390.118 979.048 387.437 978.425 385.792 977.161C385.676 977.072 385.563 976.979 385.448 976.887Z" fill="#FF4D00"/>
<path d="M510.449 982.768C514.443 982.108 524.661 982.32 528.72 982.94C531.356 983.344 533.46 984.149 535.064 986.436C538.637 991.533 538.752 1000.9 537.715 1006.88C537.369 1008.89 536.778 1010.98 535.054 1012.21C535.014 1012.31 534.994 1012.42 534.944 1012.51C534.347 1013.67 532.664 1014.34 531.521 1014.84C525.247 1015.47 516.899 1014.93 510.449 1014.91C511.121 1013.58 511.161 985.383 510.449 982.768Z" fill="#7C9D8C"/>
<path d="M307.734 818.501C308.321 818.121 308.678 817.688 309.388 817.792C308.715 820.326 299.596 832.511 297.617 835.424C288.363 849.262 279.033 863.045 269.625 876.776C264.87 883.784 260.353 891.002 255.433 897.89L255.923 888.335C256.572 878.293 257.583 868.088 257.615 858.027C257.712 856.422 257.701 854.797 257.735 853.187C258.722 852.361 259.826 851.644 260.873 850.894C276.533 840.174 291.915 828.969 307.734 818.501Z" fill="#F1DBCC"/>
<path d="M247.908 965.825C256.504 967.207 265.327 969.684 273.709 972.063C274.331 986.446 272.621 1001.09 270.673 1015.32C266.787 1015.36 262.891 1015.25 259.005 1015.21C253.58 1015.18 248.015 1014.81 242.613 1014.99C242.47 1014.99 241.871 1015.04 241.797 1015.02C241.586 1014.99 241.397 1014.85 241.184 1014.83C241.091 1014.81 240.996 1014.8 240.903 1014.79L240.712 1014.46C241.95 1012.22 247.228 1012.25 249.993 1008.9C252.085 1006.36 252.716 1003.08 252.376 999.856C251.77 994.101 248.106 989.945 243.801 986.489C246.591 979.493 247.605 973.312 247.908 965.825Z" fill="#F1DBCC"/>
<path d="M430.231 982.888C433.428 981.976 443.574 982.555 447.564 982.544L502.281 982.693L502.321 1014.97L452.682 1014.87L438.328 1014.92C435.707 1014.93 432.833 1015.15 430.249 1014.8C430.27 1004.17 430.435 993.515 430.231 982.888Z" fill="#FF4D00"/>
<path d="M412.612 890.57L437.596 890.57C441.719 890.563 446.005 890.819 450.106 890.511C450.981 890.572 451.744 890.389 452.31 891.184C453.843 893.335 454.016 897.458 454.96 900.013C456.031 908.637 459.661 912.482 458.776 922.481C458.747 922.547 458.715 922.612 458.686 922.677C456.19 928.279 457.367 928.903 452.719 934.075C454.434 937.372 456.236 940.629 457.885 943.961C453.226 944.657 447.771 944.142 443.046 944.11C435.733 944.061 428.347 944.245 421.042 943.986C421.014 943.666 420.783 943.433 420.533 943.266C414.516 939.233 408.334 936.37 404.839 929.581C404.675 929.258 404.518 928.932 404.369 928.601C404.221 928.27 404.081 927.936 403.949 927.599C403.816 927.261 403.692 926.92 403.577 926.577C403.462 926.233 403.354 925.886 403.256 925.537C403.157 925.188 403.067 924.837 402.985 924.483C402.904 924.129 402.831 923.774 402.767 923.417C402.703 923.059 402.648 922.701 402.601 922.341C402.554 921.981 402.516 921.62 402.487 921.258C402.459 920.897 402.439 920.534 402.427 920.171C402.416 919.809 402.413 919.446 402.42 919.083C402.426 918.72 402.441 918.357 402.465 917.995C402.49 917.632 402.523 917.271 402.565 916.91C402.606 916.55 402.657 916.191 402.716 915.833C402.775 915.474 402.843 915.118 402.92 914.764C402.997 914.409 403.082 914.056 403.176 913.706C403.27 913.356 403.372 913.008 403.483 912.662C406.27 906.719 406.688 896.895 409.785 890.939C410.605 890.404 411.67 890.561 412.612 890.57Z" fill="#A16154"/>
<path d="M452.718 934.075C454.434 937.372 456.236 940.629 457.885 943.961C451.702 943.427 445.236 943.821 439.027 943.847C443.849 941.229 448.355 937.418 452.718 934.075Z" fill="#F8F8F8"/>
<path d="M567.611 924.074C568.884 922.491 568.924 919.721 569.14 917.75C571.72 894.152 566.659 870.304 574.361 847.242C575.93 842.551 577.974 837.884 581.151 834.067C583.958 830.698 587.571 828.267 592.005 827.928C595.623 827.65 599.938 828.752 602.734 831.155C608.372 835.258 611.313 842.183 612.371 848.943C613.934 858.946 611.589 874.446 605.636 882.877C605.54 883.013 605.39 883.181 605.285 883.301C604.498 885.634 602.318 889.161 600.544 890.885C597.022 898.135 577.358 917.166 570.498 922.196C569.576 923.1 568.769 923.553 567.611 924.074Z" fill="#7C9D8C"/>
<path d="M386.631 888.074C392.393 896.092 398.305 904.249 403.483 912.662C403.372 913.007 403.269 913.355 403.176 913.706C403.082 914.056 402.996 914.409 402.92 914.763C402.843 915.118 402.775 915.475 402.716 915.832C402.656 916.19 402.606 916.55 402.564 916.91C402.523 917.271 402.489 917.632 402.465 917.994C402.441 918.357 402.426 918.719 402.419 919.082C402.413 919.445 402.416 919.808 402.427 920.171C402.438 920.534 402.458 920.896 402.487 921.258C402.516 921.62 402.554 921.981 402.601 922.341C402.647 922.701 402.703 923.06 402.767 923.417C402.831 923.774 402.904 924.13 402.985 924.483C403.067 924.837 403.157 925.188 403.255 925.537C403.354 925.886 403.461 926.233 403.576 926.576C403.692 926.92 403.816 927.261 403.948 927.598C404.081 927.936 404.221 928.27 404.369 928.601C404.518 928.931 404.674 929.258 404.839 929.581C408.334 936.37 414.515 939.232 420.533 943.266C420.783 943.433 421.014 943.666 421.042 943.986C414.831 943.971 401.907 942.927 396.615 944.253C396.302 944.33 395.992 944.417 395.684 944.515C395.378 944.613 395.074 944.721 394.774 944.839C394.474 944.957 394.179 945.086 393.887 945.224C393.596 945.362 393.309 945.51 393.028 945.668C392.746 945.825 392.47 945.992 392.199 946.168C391.929 946.345 391.665 946.53 391.406 946.724C391.148 946.918 390.896 947.12 390.651 947.332C390.406 947.543 390.169 947.762 389.938 947.989C386.389 951.498 385.202 956.429 385.228 961.314C385.259 967.019 387.597 971.459 391.526 975.415C388.47 975.858 385.27 975.352 382.275 975.974C381.27 976.415 376.538 975.207 375.221 975.095C373.726 974.966 372.213 975.023 370.716 975.084C368.731 975.074 366.809 975.188 364.836 975.394C361.593 975.27 358.152 975.829 354.897 976.042C348.848 976.438 337.661 976.576 332.576 973.353C353.152 956.139 366.858 931.983 377.232 907.439C378.706 903.941 380.016 900.381 381.163 896.76C382.044 894.043 382.74 890.668 384.148 888.204C384.189 888.133 384.233 888.063 384.275 887.993L385.04 888.525C385.912 888.594 385.908 888.578 386.631 888.074Z" fill="#F8F8F8"/>
<path d="M521.409 948.312C522.311 948.241 523.193 948.078 524.04 948.463L524.205 949.101L523.899 949.502C523.473 949.532 522.877 949.516 522.481 949.656C522.416 949.679 521.98 949.895 521.925 950.027C520.873 952.385 522.802 969.819 521.038 974.965C522.276 975.085 523.904 975.031 524.756 975.965L524.621 976.378C523.839 976.8 523.017 976.862 522.146 976.894C517.651 977.058 513.065 976.836 508.555 976.823L478.955 976.737C456.28 976.675 433.567 976.945 410.898 976.55C409.88 976.333 408.787 975.933 407.969 975.273C405.559 973.327 404.978 969.693 404.723 966.773C404.306 962.009 403.973 954.212 407.34 950.442C408.618 949.011 410.43 948.786 412.236 948.61C416.018 948.24 420.01 948.52 423.813 948.536L444.545 948.542C470.143 948.532 495.822 948.894 521.409 948.312Z" fill="#FEFEFE"/>
<path d="M286.879 974.476C288.681 973.135 290.643 971.868 292.602 970.774C303.14 964.891 312.365 965.309 323.05 970.469C325.429 971.618 327.91 973.511 330.452 974.177C330.594 974.214 330.737 974.246 330.879 974.281C339.144 979.032 351.909 977.836 361.111 977.057C363.431 976.861 366.032 976.853 368.293 976.334H372.808L373.173 976.457C373.368 977.289 372.872 977.928 372.543 978.699C371.606 980.889 370.539 983.421 370.177 985.791C368.81 994.736 372.118 1006.02 375.349 1014.32C367.697 1014.3 360.035 1014.65 352.383 1014.79C325.563 1015.28 298.749 1016.15 271.922 1015.61C274.411 1003.75 275.865 985.036 275.295 972.933C278.781 973.845 296.05 978.863 298.39 978.427L298.731 977.903C297.495 976.122 289.121 974.977 286.879 974.476Z" fill="#FEFEFE"/>
<path d="M208.374 844.744C208.889 844.023 209.462 843.387 210.061 842.735C210.483 843.12 210.794 843.357 211.324 843.568C218.272 846.822 225.781 849.448 232.909 852.315C236.592 853.797 241.381 856.339 245.184 857.091C247.667 857.582 250.474 857.398 252.848 856.495C253.973 856.068 254.707 855.595 255.509 854.7C255.763 854.417 256.014 854.135 256.262 853.846C256.619 856.56 256.195 859.477 256.026 862.203L255.218 876.443C255.076 879.038 254.746 881.791 254.885 884.379C254.497 889.509 253.897 894.796 253.881 899.935C251.688 902.916 248.293 908.786 245.696 910.999C243.524 912.85 240.576 914.028 238.008 915.211C223.22 922.023 206.623 926.771 190.531 929.128C187.368 929.591 179.885 929.564 177.619 930.471C176.385 930.406 175.031 930.171 173.882 930.699L173.447 931.201C169.088 929.832 134.552 919.031 133.877 918.01L134.644 916.894L134.35 916.731L134.596 916.557C134.067 916.547 133.544 916.512 133.017 916.476C143.135 910.173 152.464 902.622 161.309 894.62C163.93 892.044 166.524 889.44 169.091 886.809C171.746 883.929 174.274 880.94 176.677 877.841C179.362 874.327 181.858 870.561 184.922 867.373C188.703 863.437 193.326 860.236 197.401 856.606C201.437 853.009 204.861 848.846 208.374 844.744Z" fill="#F8F8F8"/>
<path d="M169.091 886.81C169.714 886.837 170.076 886.842 170.603 887.196C168.111 889.849 165.569 892.453 162.977 895.007C159.426 898.429 138.328 916.655 134.644 916.895L134.35 916.731L134.596 916.558C134.067 916.548 133.544 916.512 133.017 916.476C143.135 910.173 152.464 902.623 161.309 894.62C163.93 892.044 166.524 889.441 169.091 886.81Z" fill="#422038"/>
<path d="M208.374 844.744C208.889 844.023 209.462 843.387 210.061 842.735C210.483 843.12 210.794 843.357 211.324 843.568L209.73 845.55C206.261 849.661 202.792 853.749 198.787 857.345C194.347 861.332 189.462 864.869 185.372 869.24C180.176 874.792 176.406 882.276 170.603 887.196C170.076 886.842 169.714 886.838 169.091 886.81C171.746 883.929 174.274 880.94 176.677 877.842C179.362 874.328 181.858 870.561 184.922 867.373C188.703 863.438 193.326 860.237 197.401 856.606C201.437 853.009 204.861 848.846 208.374 844.744Z" fill="#4C2C42"/>
<path d="M347.757 704.067C349.307 702.935 351.464 700.873 353.363 700.909L352.681 704.243C351.863 706.893 351.173 709.757 350.8 712.512C350.26 714.807 349.76 717.094 349.343 719.417C348.558 722.079 347.967 724.886 347.455 727.615C345.46 736.692 343.527 745.783 341.656 754.888C340.872 758.621 339.486 762.969 339.232 766.753C339.921 767.911 339.908 768.538 339.751 769.881C339.556 770.945 339.263 771.88 339.707 772.913L339.458 774.11L340.173 774.694C339.816 776.859 335.776 780.648 334.142 782.206C333.508 782.428 333.224 782.353 332.588 782.164L331.193 782.945C331.852 783.304 332.43 783.423 332.723 784.14C331.174 786.357 329.067 790.367 326.97 791.95C325.4 789.732 310.837 780.627 307.58 778.592C306.704 777.913 305.873 777.17 305.03 776.45C304.52 776.942 304.453 776.955 304.344 777.649L304.32 778.278C302.99 779.469 301.927 780.424 301.306 782.165C300.805 783.944 301.269 785.53 302.132 787.117C302.788 788.301 303.522 789.434 304.335 790.514C306.317 792.809 308.474 794.923 310.806 796.856C309.083 797.011 307.161 797.123 305.981 798.596C305.489 799.209 305.359 799.986 305.514 800.75C306.067 803.481 309.103 806.03 311.378 807.392C312.112 807.825 312.854 808.243 313.605 808.644L314.656 809.29C314.811 810.247 314.554 810.794 313.979 811.592C312.025 814.305 308.517 816.19 305.772 817.972C295.155 825.027 284.808 832.542 274.327 839.805C271.231 841.949 262.725 847.252 260.392 849.498L260.872 850.895C259.826 851.644 258.722 852.362 257.734 853.188C257.701 854.797 257.712 856.422 257.614 858.028C257.359 856.887 257.543 855.599 257.086 854.519C256.852 853.965 256.772 854.062 256.261 853.847C256.013 854.136 255.762 854.417 255.508 854.701C254.706 855.595 253.973 856.068 252.847 856.496C250.474 857.398 247.667 857.583 245.184 857.092C241.381 856.339 236.592 853.797 232.909 852.316C225.781 849.449 218.272 846.823 211.324 843.568C210.794 843.357 210.482 843.121 210.061 842.736C214.139 837.188 218.556 831.884 222.352 826.13L223.931 826.312C220.589 832.019 215.989 837.135 212.163 842.534C223.057 846.431 234.066 850.854 244.635 855.58C247.227 844.054 250.332 832.608 253.196 821.146C256.831 806.598 260.291 792.029 264.141 777.536C265.603 772.007 266.982 766.457 268.278 760.886C269.034 757.737 269.643 754.437 270.725 751.393C270.726 750.909 270.971 750.457 271.145 750.01C273.341 750.255 275.606 750.146 277.814 750.143C282.876 746.889 287.77 743.297 292.738 739.895C302.62 733.206 312.466 726.464 322.277 719.67L323.5 720.518C326.404 718.97 329.271 716.564 332.009 714.666C337.203 711.048 342.452 707.516 347.757 704.067Z" fill="#FF4D00"/>
<path d="M304.654 769.91C305.515 770.752 305.682 770.615 306.836 770.671C305.802 771.075 304.914 771.445 304.398 772.502C303.992 773.335 304.02 774.233 304.36 775.081C304.551 775.553 304.775 776.009 305.03 776.45C304.52 776.942 304.454 776.955 304.344 777.649C303.345 776.682 302.596 775.45 302.601 774.008C302.607 772.233 303.445 771.094 304.654 769.91Z" fill="#4C2C42"/>
<path d="M312.775 762.55C313.738 762.302 314.597 762.147 315.588 762.32C320.427 763.165 328.54 767.886 333.417 770.026L337.968 772.112C338.332 770.311 338.781 768.534 339.232 766.753C339.921 767.911 339.908 768.538 339.751 769.881C339.556 770.945 339.263 771.88 339.707 772.913L339.458 774.11L340.173 774.694C339.816 776.859 335.776 780.648 334.142 782.206C333.508 782.428 333.224 782.353 332.588 782.164L331.193 782.944C331.852 783.304 332.43 783.423 332.723 784.14C331.174 786.357 329.067 790.367 326.97 791.95C325.4 789.732 310.837 780.627 307.58 778.592C306.705 777.913 305.873 777.17 305.03 776.45C304.775 776.01 304.551 775.554 304.36 775.082C304.02 774.234 303.992 773.335 304.398 772.502C304.914 771.445 305.802 771.075 306.836 770.672C305.682 770.615 305.515 770.752 304.654 769.91C305.803 769.316 307.275 769.251 308.545 769.307C308.628 769.311 308.711 769.317 308.795 769.321C309.387 768.203 309.525 766.637 310.006 765.394L310.134 765.072C310.553 763.802 311.664 763.134 312.775 762.55Z" fill="#F1DBCC"/>
<path d="M312.775 762.55C313.738 762.302 314.597 762.147 315.588 762.32C320.427 763.165 328.54 767.886 333.417 770.026L337.968 772.112C338.332 770.311 338.781 768.534 339.232 766.753C339.921 767.911 339.908 768.538 339.751 769.881C339.556 770.945 339.263 771.88 339.707 772.913L339.458 774.11C337.563 773.324 335.498 772.627 333.759 771.53C327.622 769.229 321.665 766.068 315.619 763.48C314.043 763.786 312.612 764.008 311.6 765.42C311.165 766.027 310.88 766.797 310.599 767.488C310.635 768.408 310.537 769.606 311.246 770.289C311.663 770.691 312.318 770.993 312.827 771.268L320.198 775.282C324.306 777.552 328.611 779.681 332.588 782.164L331.193 782.944C326.924 780.672 322.69 778.335 318.492 775.932C316.332 774.879 314.249 773.727 312.162 772.539C310.429 771.745 308.66 771.209 306.836 770.671C305.682 770.615 305.515 770.752 304.654 769.91C305.803 769.316 307.275 769.251 308.545 769.307C308.628 769.311 308.711 769.316 308.795 769.321C309.387 768.203 309.525 766.637 310.006 765.394L310.134 765.072C310.553 763.802 311.664 763.134 312.775 762.55Z" fill="#422038"/>
<path d="M305.03 776.45C304.775 776.009 304.551 775.553 304.36 775.081C304.02 774.233 303.992 773.335 304.398 772.501C304.914 771.445 305.802 771.075 306.836 770.671C308.66 771.209 310.429 771.745 312.162 772.538C314.249 773.726 316.332 774.879 318.492 775.932C322.69 778.335 326.924 780.672 331.193 782.944C331.852 783.304 332.43 783.423 332.723 784.14C331.174 786.357 329.067 790.367 326.97 791.95C325.4 789.732 310.837 780.627 307.58 778.592C306.705 777.912 305.873 777.17 305.03 776.45Z" fill="#F1DBCC"/>
<path d="M277.815 750.142C282.877 746.888 287.77 743.296 292.739 739.894C302.62 733.205 312.467 726.464 322.278 719.67L323.5 720.518C314.088 727.091 304.632 733.6 295.134 740.047C290.11 743.487 284.699 746.836 280.019 750.736C279.177 760.174 276.27 769.843 274.055 779.036C269.992 795.596 265.8 812.124 261.48 828.617C259.438 836.671 257.175 844.783 255.545 852.932C257.146 851.783 258.73 850.552 260.392 849.498L260.872 850.894C259.826 851.644 258.722 852.362 257.734 853.187C257.701 854.797 257.712 856.422 257.615 858.028C257.359 856.887 257.543 855.599 257.086 854.518C256.852 853.964 256.772 854.061 256.262 853.846C256.014 854.136 255.763 854.417 255.508 854.7C254.707 855.595 253.973 856.068 252.848 856.496C250.474 857.398 247.667 857.582 245.184 857.091C241.381 856.339 236.592 853.797 232.909 852.315C225.781 849.448 218.272 846.822 211.324 843.568C210.794 843.357 210.483 843.12 210.061 842.736C214.139 837.188 218.557 831.883 222.353 826.129L223.931 826.312C220.589 832.019 215.989 837.134 212.163 842.533C223.057 846.43 234.066 850.854 244.635 855.579C247.227 844.053 250.333 832.608 253.196 821.145C256.831 806.597 260.291 792.028 264.142 777.535C265.603 772.006 266.982 766.457 268.278 760.886C269.035 757.737 269.643 754.437 270.725 751.392C270.727 750.909 270.971 750.457 271.146 750.01C273.341 750.254 275.607 750.145 277.815 750.142Z" fill="#422038"/>
<path d="M277.632 751.577L278.207 751.562C279.646 754.346 262.9 816.668 260.961 824.385C258.383 834.644 256.248 845.04 253.318 855.206C251.266 855.708 249.139 855.868 247.043 856.094L246.369 855.846C245.94 853.593 269.21 763.567 272.034 751.69C273.897 751.734 275.769 751.636 277.632 751.577Z" fill="#C93D00"/>
<path d="M511.928 707.79C511.998 707.762 512.063 707.735 512.133 707.706C514.323 706.739 516.302 705.006 518.407 703.8C525.433 699.769 533.365 698.741 541.002 701.712C552.167 706.056 561.052 717.12 565.687 727.916C577.082 754.439 571.645 782.265 561.467 808.153C558.781 814.982 555.675 821.536 552.608 828.191C551.24 831.156 549.952 834.824 548.043 837.447L547.917 837.759C546.108 842.165 543.683 846.323 541.679 850.644C536.713 861.365 532.588 872.673 529.998 884.222C528.82 889.459 527.848 894.892 527.728 900.267C527.657 903.325 528.429 909.147 527.166 911.746C527.387 909.475 522.165 895.216 520.622 893.335C520.482 893.159 520.216 892.953 520.056 892.818C520.411 890.594 515.937 880.874 514.914 878.237C501.515 843.645 482.904 798.467 487.307 760.923C488.605 749.845 491.981 739.886 496.243 729.651C498.388 725.909 500.467 722.189 502.817 718.568C504.677 716.865 507.302 712.956 509.417 710.79C510.214 709.978 511.652 708.878 511.928 707.79Z" fill="#7C9D8C"/>
<path d="M224.036 590.728C236.537 582.512 249.739 574.678 263.349 568.523C312.023 546.509 366.551 543.034 418.383 554.145C429.352 556.496 439.992 560.15 450.441 564.212C467.586 570.876 485.264 579.894 500.427 590.38C527.593 609.164 552.483 636.499 570.322 664.33C571.121 665.591 571.908 666.861 572.683 668.137C573.461 669.414 574.224 670.699 574.973 671.991C575.724 673.283 576.463 674.582 577.188 675.888C577.913 677.195 578.626 678.508 579.327 679.829C580.026 681.149 580.712 682.476 581.387 683.811C582.062 685.145 582.723 686.485 583.371 687.833C584.019 689.18 584.654 690.533 585.275 691.893C585.9 693.252 586.51 694.618 587.105 695.99C587.699 697.361 588.282 698.738 588.853 700.121C589.421 701.504 589.978 702.893 590.522 704.287C591.063 705.681 591.591 707.08 592.106 708.485C592.623 709.889 593.126 711.299 593.614 712.713C594.102 714.127 594.576 715.546 595.037 716.97C595.498 718.394 595.944 719.822 596.375 721.254C596.809 722.687 597.229 724.124 597.633 725.564C598.04 727.005 598.433 728.45 598.81 729.898C599.188 731.347 599.552 732.799 599.903 734.255C600.25 735.71 600.584 737.169 600.905 738.631C601.229 740.094 601.536 741.559 601.827 743.027C602.121 744.495 602.4 745.966 602.664 747.44C602.931 748.914 603.182 750.39 603.415 751.869C603.653 753.348 603.875 754.828 604.082 756.312C604.289 757.795 604.483 759.28 604.663 760.767C604.84 762.254 605.004 763.742 605.154 765.232C605.305 766.722 605.44 768.214 605.56 769.707C605.684 771.199 605.791 772.693 605.881 774.188C605.975 775.683 606.053 777.179 606.116 778.675C606.18 780.172 606.23 781.669 606.267 783.166C606.3 784.664 606.32 786.162 606.327 787.659C606.33 789.157 606.32 790.655 606.297 792.153C606.273 793.65 606.237 795.147 606.187 796.644C606.133 798.141 606.066 799.637 605.986 801.133C605.55 809.394 605.189 818.086 603.496 826.199C603.27 827.275 602.97 828.253 602.448 829.222C599.507 826.903 594.746 825.961 591.083 826.393C586.273 826.96 582.093 830.179 579.222 833.964C569.716 846.508 568.012 867.873 568.202 883.135C568.242 886.49 569.28 896.498 567.927 899.098C564.935 902.813 562.826 908.806 560.245 913.076C557.814 917.095 550.002 926.811 548.955 930.461C544.249 930.805 539.514 930.404 534.803 930.704C534.949 928.171 531.847 921.893 531.025 918.91C528.499 909.766 528.8 899.066 530.444 889.792C532.849 876.222 537.489 863.729 543.072 851.212C544.249 848.566 549.576 839.13 549.441 837.072C551.535 835.33 553.334 830.233 554.542 827.679C562.825 810.186 570.608 791.765 572.963 772.374C575.358 752.628 571.991 730.468 559.528 714.491C553.485 706.749 545.106 699.781 535.094 698.647C525.643 697.578 517.926 701.366 510.71 707.163C507.442 710.319 504.07 713.575 501.825 717.589C502.166 717.904 502.527 718.205 502.817 718.568C500.467 722.189 498.387 725.909 496.243 729.652C496.208 729.641 496.178 729.623 496.143 729.618C495.712 729.56 495.304 729.544 494.876 729.455C492.449 733.254 490.943 738.345 489.641 742.651C483.214 763.909 484.477 783.991 489.09 805.553C493.898 828.032 502.266 849.272 510.379 870.672C512.277 875.671 514.231 880.649 516.242 885.604C517.229 888.086 518.627 890.871 519.194 893.475C522.361 899.588 524.5 906.741 526.926 913.215C528.85 918.348 531.185 923.535 532.834 928.745C533.019 929.345 533.149 929.936 532.989 930.558C525.693 930.554 517.284 929.974 510.103 930.707C504.987 930.131 499.325 930.658 494.155 930.697L494.21 943.958L482.493 944.013C479.975 934.063 474.508 922.572 470.096 913.247C467.4 907.534 464.286 901.905 461.068 896.478C463.201 893.553 481.194 882.114 485.441 879.217C473.978 861.18 462.383 843.23 450.656 825.367C446.061 818.39 441.209 811.585 436.684 804.559C423.766 786.881 413.966 765.652 391.587 758.575C376.711 753.871 361.684 756.722 349.607 766.585C347.596 768.228 343.592 772.754 341.699 773.599C341.361 773.751 340.101 773.081 339.706 772.913C339.263 771.88 339.556 770.945 339.751 769.881C339.907 768.538 339.921 767.911 339.232 766.752C339.486 762.969 340.872 758.62 341.655 754.888C343.527 745.783 345.46 736.692 347.454 727.614C347.967 724.885 348.558 722.079 349.343 719.417C349.759 717.094 350.26 714.807 350.8 712.512C351.173 709.757 351.863 706.893 352.68 704.242L353.362 700.908C351.464 700.872 349.306 702.935 347.757 704.067L346.563 703.059L345.118 704.169C341.32 698.112 337.25 694.104 330.111 692.509C328.737 692.202 327.362 691.983 325.966 691.813C324.066 702.633 320.265 709.106 311.208 715.49C299.508 723.738 285.478 727.774 276.157 739.37C274.58 741.386 273.183 743.45 271.81 745.608C270.238 743.778 261.446 735.324 261.117 734.249C261.005 733.887 261.482 733.109 261.637 732.753C264.708 726.795 266.438 720.223 267.946 713.718C270.355 702.437 270.169 691.259 268.428 679.905C267.57 675.423 266.473 671.001 265.138 666.639C264.169 663.897 263.256 661.117 262.105 658.448C263.616 657.085 264.988 655.474 266.258 653.879C272.15 646.479 275.171 638.384 274.196 628.91C272.788 621.266 268.994 614.664 262.759 610.075C262.672 609.988 262.591 609.896 262.498 609.815C256.835 604.832 248.625 603.083 241.328 603.168C239.508 603.287 237.72 603.44 235.917 603.714C235.135 602.459 234.297 601.243 233.404 600.066C232.511 598.889 231.566 597.756 230.57 596.667C229.573 595.578 228.529 594.537 227.438 593.545C226.347 592.553 225.213 591.614 224.036 590.728Z" fill="#F8F8F8"/>
<path d="M501.825 717.589C502.166 717.904 502.527 718.205 502.818 718.568C500.467 722.189 498.388 725.909 496.243 729.652C496.208 729.641 496.178 729.623 496.143 729.618C495.712 729.56 495.304 729.544 494.877 729.455C496.393 725.395 499.24 721.046 501.825 717.589Z" fill="#422038"/>
<path d="M520.617 650.969C521.349 650.904 522.085 650.931 522.742 651.298C523.453 651.694 524.025 652.358 524.235 653.159C524.406 653.811 524.275 654.526 523.939 655.105C523.428 655.988 522.667 656.227 521.74 656.483C521.579 656.488 521.419 656.504 521.258 656.498C520.592 656.475 519.68 656.085 519.279 655.526C518.833 654.897 518.763 654.307 518.848 653.55C518.993 652.284 519.685 651.742 520.617 650.969Z" fill="#4C2C42"/>
<path d="M554.843 850.253C555.69 850.07 556.567 849.925 557.399 850.251C558.286 850.599 559.113 851.389 559.458 852.293C559.749 853.056 559.739 853.982 559.398 854.727C558.912 855.781 558.196 856.175 557.168 856.582C557.028 856.641 556.898 856.726 556.747 856.758C556.326 856.848 555.184 856.753 554.823 856.51C554.146 856.055 553.836 855.373 553.685 854.588C553.31 852.63 553.761 851.815 554.843 850.253Z" fill="#4C2C42"/>
<path d="M467.539 839.65C467.872 839.663 468.196 839.699 468.525 839.757C469.958 840.009 471.236 840.654 472.059 841.908C472.13 842.013 472.194 842.121 472.252 842.233C472.311 842.345 472.364 842.46 472.411 842.578C472.457 842.696 472.498 842.815 472.532 842.937C472.566 843.059 472.593 843.183 472.615 843.308C472.636 843.432 472.651 843.558 472.659 843.685C472.667 843.811 472.669 843.938 472.663 844.064C472.658 844.191 472.646 844.317 472.628 844.442C472.61 844.567 472.585 844.692 472.554 844.814C472.164 846.316 471.032 847.096 469.799 847.877C469.248 847.894 468.675 847.916 468.131 847.815C467.012 847.607 465.875 846.79 465.237 845.849C464.619 844.939 464.457 843.81 464.723 842.745C465.12 841.153 466.263 840.47 467.539 839.65Z" fill="#4C2C42"/>
<path d="M342.896 614.762C343.694 614.744 344.517 614.708 345.287 614.955C345.45 615.009 345.609 615.071 345.766 615.141C345.922 615.211 346.074 615.289 346.223 615.376C346.371 615.462 346.515 615.556 346.653 615.657C346.792 615.759 346.925 615.867 347.052 615.983C347.179 616.098 347.3 616.22 347.415 616.348C347.53 616.476 347.638 616.61 347.739 616.749C347.84 616.889 347.934 617.033 348.02 617.182C348.106 617.332 348.185 617.485 348.255 617.643C348.322 617.797 348.381 617.954 348.433 618.114C348.484 618.275 348.527 618.438 348.561 618.602C348.596 618.767 348.622 618.933 348.64 619.101C348.657 619.268 348.666 619.436 348.666 619.605C348.666 619.773 348.658 619.941 348.642 620.109C348.625 620.276 348.599 620.442 348.565 620.607C348.531 620.772 348.489 620.935 348.439 621.096C348.388 621.256 348.329 621.414 348.263 621.568C347.556 623.23 346.329 623.958 344.732 624.597C343.966 624.567 343.116 624.461 342.385 624.228C341.189 623.846 340.122 622.855 339.569 621.73C339.5 621.59 339.438 621.448 339.384 621.301C339.329 621.155 339.282 621.007 339.243 620.856C339.204 620.705 339.172 620.552 339.149 620.398C339.126 620.244 339.11 620.089 339.103 619.933C339.095 619.777 339.096 619.621 339.104 619.465C339.113 619.309 339.13 619.154 339.154 619C339.179 618.846 339.211 618.694 339.251 618.543C339.292 618.393 339.339 618.244 339.395 618.099C340.053 616.345 341.293 615.523 342.896 614.762Z" fill="#4C2C42"/>
<path d="M396.565 669.391C399.566 655.288 405.773 643.953 418.031 635.901C429.294 628.502 443.883 626.176 456.997 628.986C470.001 631.772 481.52 640.583 488.611 651.805C495.577 662.83 497.771 676.807 495.01 689.559C493.86 694.867 491.95 700.064 489.058 704.661C481.452 716.753 473.1 719.983 469.686 736.313C469.384 737.755 468.714 740.86 469.394 742.198C462.17 742.293 454.932 742.197 447.707 742.192L445.787 742.187C437.904 741.875 429.891 742.136 421.997 742.15C422.892 742.108 423.71 742.11 424.548 741.764C424.913 741.217 425.127 740.964 425.137 740.274C425.163 738.479 424.401 736.175 423.996 734.407C422.529 727.982 419.318 721.221 414.891 716.329C412.385 713.56 409.542 711.116 407.128 708.255C397.691 697.072 395.366 683.629 396.565 669.391Z" fill="#FF4D00"/>
<path d="M445.777 698.883C442.916 693.955 440.11 688.997 437.358 684.006C436.366 682.243 435.007 680.475 434.18 678.654C433.792 677.8 433.719 676.932 433.788 676.008L434.119 675.7C436.191 676.861 445.069 693.366 447.058 696.793C448.677 693.685 456.885 676.917 458.974 676.086L459.57 676.433C459.892 680.246 449.384 694.098 448.067 699.368C447.158 703.009 447.742 709.578 447.738 713.458L447.707 742.192L445.786 742.187C445.549 727.754 445.996 713.315 445.777 698.883Z" fill="#FEFEFE"/>
<path d="M268.429 679.905C268.496 679.559 268.656 679.276 268.805 678.959C272.093 676.388 276.563 675.108 280.381 673.512C299.46 665.535 318.932 659.419 339.732 658.681C356.7 658.079 373.032 660.421 389.029 666.122C391.217 666.902 394.89 667.813 396.564 669.391C395.366 683.63 397.691 697.072 407.128 708.256C409.542 711.116 412.384 713.561 414.891 716.329C419.318 721.222 422.529 727.982 423.996 734.407C424.401 736.175 425.163 738.48 425.137 740.274C425.127 740.964 424.913 741.217 424.548 741.764C423.71 742.11 422.892 742.108 421.997 742.15C429.891 742.136 437.903 741.875 445.786 742.187L447.707 742.192C454.932 742.197 462.17 742.293 469.394 742.199C470.215 744.375 469.428 758.454 469.404 762.039L465.119 762.079C465.132 763.58 464.981 765.254 465.464 766.685L465.924 766.904C466.502 770.274 462.21 776.602 460.324 779.29C453.341 789.243 444.942 795.947 436.684 804.559C423.766 786.881 413.966 765.652 391.587 758.575C376.711 753.871 361.684 756.723 349.608 766.585C347.596 768.228 343.592 772.754 341.7 773.6C341.361 773.751 340.102 773.081 339.707 772.913C339.263 771.88 339.556 770.945 339.751 769.881C339.908 768.538 339.921 767.911 339.232 766.753C339.486 762.969 340.872 758.62 341.656 754.888C343.527 745.783 345.46 736.692 347.455 727.615C347.967 724.885 348.558 722.079 349.343 719.417C349.76 717.094 350.26 714.807 350.8 712.512C351.173 709.757 351.863 706.893 352.681 704.242L353.363 700.909C351.464 700.873 349.307 702.935 347.757 704.067L346.563 703.059L345.118 704.17C341.32 698.113 337.25 694.105 330.111 692.509C328.737 692.202 327.362 691.984 325.966 691.814C324.067 702.633 320.265 709.106 311.209 715.49C299.508 723.738 285.478 727.774 276.157 739.37C274.58 741.386 273.183 743.45 271.811 745.608C270.238 743.779 261.446 735.324 261.117 734.249C261.006 733.887 261.482 733.11 261.638 732.753C264.708 726.795 266.438 720.223 267.946 713.718C270.355 702.438 270.169 691.26 268.429 679.905Z" fill="#FEFEFE"/>
<path d="M346.563 703.059C348.266 701.82 352.428 697.971 354.361 698.256C354.842 698.752 355.032 699.062 355.021 699.786C355.003 700.919 354.509 702.312 354.233 703.428L353.725 705.634C353.147 708.052 352.515 710.47 352.028 712.908L350.8 712.512C351.173 709.757 351.863 706.893 352.681 704.243L353.363 700.909C351.464 700.873 349.307 702.935 347.757 704.067L346.563 703.059Z" fill="#422038"/>
<path d="M349.343 719.417C349.76 717.094 350.26 714.807 350.8 712.512L352.028 712.908L350.977 717.723C350.186 721.637 349.328 725.535 348.403 729.419C345.511 742.861 343.187 756.581 339.751 769.881C339.908 768.538 339.921 767.911 339.232 766.753C339.486 762.969 340.872 758.62 341.656 754.888C343.527 745.783 345.46 736.692 347.454 727.615C347.967 724.885 348.558 722.079 349.343 719.417Z" fill="#4C2C42"/>
<path d="M421.997 742.15C429.891 742.136 437.904 741.875 445.787 742.187L447.707 742.192C454.932 742.197 462.17 742.293 469.394 742.198C470.215 744.375 469.428 758.454 469.404 762.039L465.119 762.079C465.133 763.58 464.981 765.254 465.464 766.685C460.995 767.081 456.214 766.683 451.713 766.657C443.099 766.65 434.484 766.58 425.87 766.448L425.865 761.896L422.038 761.852C421.894 759.162 421.957 756.466 421.796 753.781C421.602 750.553 420.89 747.087 421.216 743.863C421.3 743.026 421.329 742.665 421.997 742.15Z" fill="#4C2C42"/>
</svg>
