<svg width="16" height="16" viewBox="0 0 16 16" fill="none" xmlns="http://www.w3.org/2000/svg">
<g clip-path="url(#clip0_108_620)">
<path d="M8.16289 3.46748C8.11927 3.42575 8.06124 3.40247 8.00088 3.40247C7.94052 3.40247 7.88248 3.42575 7.83887 3.46748L2.44531 8.61992C2.42241 8.64183 2.40418 8.66816 2.39175 8.69731C2.37931 8.72647 2.37291 8.75785 2.37295 8.78955L2.37207 13.6253C2.37207 13.8739 2.47084 14.1124 2.64666 14.2882C2.82247 14.464 3.06093 14.5628 3.30957 14.5628H6.125C6.24932 14.5628 6.36855 14.5134 6.45645 14.4255C6.54436 14.3376 6.59375 14.2184 6.59375 14.094V10.1097C6.59375 10.0475 6.61844 9.98789 6.6624 9.94393C6.70635 9.89998 6.76596 9.87529 6.82812 9.87529H9.17187C9.23403 9.87529 9.29365 9.89998 9.3376 9.94393C9.38155 9.98789 9.40625 10.0475 9.40625 10.1097V14.094C9.40625 14.2184 9.45563 14.3376 9.54354 14.4255C9.63145 14.5134 9.75068 14.5628 9.875 14.5628H12.6893C12.9379 14.5628 13.1764 14.464 13.3522 14.2882C13.528 14.1124 13.6268 13.8739 13.6268 13.6253V8.78955C13.6268 8.75785 13.6204 8.72647 13.608 8.69731C13.5955 8.66816 13.5773 8.64183 13.5544 8.61992L8.16289 3.46748Z" fill="#C4C4C4"/>
<path d="M14.8826 7.65369L12.6912 5.5572V2.37585C12.6912 2.25153 12.6418 2.13231 12.5539 2.0444C12.466 1.95649 12.3468 1.9071 12.2225 1.9071H10.8162C10.6919 1.9071 10.5727 1.95649 10.4848 2.0444C10.3969 2.13231 10.3475 2.25153 10.3475 2.37585V3.31335L8.65059 1.69089C8.4918 1.53035 8.25567 1.43835 8.0005 1.43835C7.7462 1.43835 7.51065 1.53035 7.35186 1.69119L1.12042 7.6531C0.938195 7.82888 0.915343 8.11804 1.08116 8.30847C1.1228 8.35654 1.17379 8.39563 1.23102 8.42337C1.28824 8.4511 1.35052 8.46691 1.41405 8.46981C1.47758 8.47272 1.54103 8.46266 1.60055 8.44026C1.66007 8.41787 1.71441 8.38359 1.76026 8.33953L7.83936 2.53054C7.88298 2.48882 7.94102 2.46553 8.00138 2.46553C8.06174 2.46553 8.11977 2.48882 8.16339 2.53054L14.2431 8.33953C14.3326 8.42541 14.4526 8.47228 14.5766 8.46986C14.7007 8.46745 14.8187 8.41594 14.9049 8.32663C15.0848 8.14031 15.0698 7.83269 14.8826 7.65369Z" fill="#C4C4C4"/>
</g>
<defs>
<clipPath id="clip0_108_620">
<rect width="15" height="15" fill="white" transform="translate(0.5 0.5)"/>
</clipPath>
</defs>
</svg>
