<svg xmlns="http://www.w3.org/2000/svg" width="14" height="17" viewBox="0 0 14 17" fill="none">
  <path d="M13.9737 0.372169C13.9207 0.243431 13.7947 0.159424 13.6556 0.159424H3.13608C1.95462 0.159424 0.918457 1.12468 0.918457 2.22491V2.9134C0.918457 4.01362 1.95465 4.97888 3.13611 4.97888H3.3282C3.51823 4.97888 3.67246 4.82465 3.67246 4.63463V3.25766C3.67246 3.13647 3.69725 3.02151 3.73581 2.9134H2.98398C2.79395 2.9134 2.63972 2.75916 2.63972 2.56914C2.63972 2.37911 2.79392 2.22491 2.98394 2.22491H4.70517H8.83615H13.3479C13.3995 1.62866 13.5778 1.06824 13.8993 0.74741C13.9978 0.648944 14.0274 0.500907 13.9737 0.372169Z" fill="#C4C4C4"/>
  <path d="M13.8989 4.39095C13.5774 4.07013 13.3991 3.50967 13.3468 2.91345H9.80444C9.84369 3.02154 9.86847 3.13652 9.86847 3.25771V4.63471C9.86847 4.82474 10.0227 4.97897 10.2127 4.97897H13.6552C13.7943 4.97897 13.9203 4.89496 13.9733 4.76623C14.027 4.63742 13.9974 4.48939 13.8989 4.39095Z" fill="#C4C4C4"/>
  <path d="M13.6552 5.66736H10.2127C10.0227 5.66736 9.86847 5.82159 9.86847 6.01161V10.8311C9.86847 11.2504 9.61787 11.6249 9.23023 11.7853C8.85086 11.943 8.39645 11.8528 8.10522 11.5616L7.01326 10.4703C6.879 10.3361 6.66073 10.3361 6.52648 10.4703L5.43451 11.5616C5.14328 11.8521 4.69026 11.9444 4.3095 11.7853C3.92258 11.6249 3.67194 11.2504 3.67194 10.8311V6.01158C3.67194 5.82156 3.51771 5.66732 3.32768 5.66732H3.13559C2.54348 5.66732 1.96307 5.48282 1.45774 5.13511C1.3524 5.06281 1.2154 5.05387 1.10247 5.11377C0.988873 5.17367 0.917969 5.29073 0.917969 5.41879V14.6178C0.917969 15.8144 1.7056 16.6833 2.79137 16.6833H13.6552C13.8452 16.6833 13.9994 16.529 13.9994 16.339V6.01158C13.9994 5.82156 13.8452 5.66736 13.6552 5.66736Z" fill="#C4C4C4"/>
  <path d="M8.83583 2.91345H4.70485C4.51483 2.91345 4.3606 3.06769 4.3606 3.25771V10.8312C4.3606 10.9702 4.4446 11.0962 4.57334 11.1493C4.70208 11.203 4.85012 11.1734 4.94858 11.0749L6.77034 9.25247L8.5921 11.0742C8.6582 11.1403 8.74634 11.1754 8.83583 11.1754C8.87988 11.1754 8.92465 11.1672 8.96734 11.1493C9.09608 11.0962 9.18009 10.9702 9.18009 10.8312V3.25771C9.18009 3.06769 9.02585 2.91345 8.83583 2.91345Z" fill="#C4C4C4"/>
</svg>