<svg xmlns="http://www.w3.org/2000/svg" width="21" height="20" viewBox="0 0 21 20" fill="none">
  <path d="M14.6406 0H6.35938C3.12344 0 0.5 2.62344 0.5 5.85938V14.1406C0.5 17.3766 3.12344 20 6.35938 20H14.6406C17.8766 20 20.5 17.3766 20.5 14.1406V5.85938C20.5 2.62344 17.8766 0 14.6406 0ZM9.91055 15.4688C9.91055 16.0082 9.47344 16.4453 8.93398 16.4453H6.19961C5.12109 16.4453 4.24648 15.5707 4.24648 14.4922V5.50781C4.24648 4.4293 5.12109 3.55469 6.19961 3.55469H8.93398C9.47344 3.55469 9.91055 3.9918 9.91055 4.53125C9.91055 5.0707 9.47344 5.50781 8.93398 5.50781H6.68789C6.41836 5.50781 6.19961 5.72656 6.19961 5.99609V14.0039C6.19961 14.2734 6.41836 14.4922 6.68789 14.4922H8.93398C9.47344 14.4922 9.91055 14.9293 9.91055 15.4688ZM16.4676 10.6906L12.9438 14.2145C12.5625 14.5957 11.9441 14.5957 11.5625 14.2145C11.1813 13.8332 11.1813 13.2148 11.5625 12.8332L13.4191 10.9766H8.36016C7.8207 10.9766 7.38359 10.5395 7.38359 10C7.38359 9.46055 7.8207 9.02344 8.36016 9.02344H13.4191L11.5625 7.1668C11.1813 6.78555 11.1813 6.16719 11.5625 5.78555C11.9438 5.4043 12.5621 5.4043 12.9438 5.78555L16.4676 9.30938C16.8488 9.69063 16.8488 10.309 16.4676 10.6906Z" fill="#E01E5A"/>
</svg>