<svg xmlns="http://www.w3.org/2000/svg" width="54" height="66" viewBox="0 0 54 66" fill="none">
<path d="M5.99945 0C2.68622 0 0 2.70023 0 6.00023V60.0006C0 63.3006 2.68622 66 5.99945 66H48.0006C51.3154 66 54 63.3006 54 60.0006V17.9999L36.0008 0H5.99945ZM47.5311 30.0003H50.6249L49.875 30.563C48.4023 32.3623 47.0229 33.8811 46.2185 34.7812C46.2458 34.7539 46.2829 34.8109 46.3126 34.7812C47.4288 34.1814 49.908 32.6626 51.0003 32.0628C51.0448 32.0628 51.0003 32.6815 51.0003 33.2813V34.1253L50.5317 34.4999C50.2586 34.8002 49.6926 35.0443 49.2191 35.3438C44.6164 38.044 41.9425 42.2623 41.1563 47.0629C40.8865 48.8623 41.0053 52.1812 41.4368 54.2817C41.9623 56.9811 43.4581 60.8248 44.7187 62.6249L44.9992 63.0003H31.031V62.0623C31.031 61.7628 31.0681 60.8998 31.125 59.9998C31.5301 54.9004 33.0102 50.3811 35.3441 46.7816C35.5091 46.4813 35.7599 46.1439 35.9068 45.8436C36.0561 45.5441 36.2673 45.2999 36.3754 45.0004C36.6806 44.7001 36.4686 44.6622 35.7187 45.5623C34.7113 46.1629 32.1414 48.2435 31.0318 48.8441C27.938 50.6435 24.8905 51.8999 21.6564 52.5005C20.489 52.8 17.8903 53.0624 17.2509 53.0624C16.9935 52.7629 16.7806 52.7629 16.7806 53.0624C16.7806 53.0624 17.0669 53.0442 17.3441 53.3437C17.8309 53.3437 18.9224 53.9814 19.0313 54.2817H19.3118C19.985 54.8815 21.6276 56.081 22.5936 57.2814C24.0638 58.7812 25.2642 60.8248 25.6874 62.6249L25.7815 63.0003H23.1555L22.875 62.3436C21.6952 59.3439 19.0139 56.3442 15.7494 54.8443C14.0383 53.9443 12.6177 53.644 10.5931 53.3437C8.87377 53.0442 5.18929 53.0252 3.4675 53.6242H2.9989V52.4997C2.9989 51.8999 3.0649 51.2812 3.09295 51.2812H4.31149C5.50775 50.9809 8.63782 50.9809 9.18645 51.2812C9.78128 51.2812 9.40673 50.9429 8.34247 50.344C6.94656 49.7434 4.83454 48.5999 3.84288 48.0001L2.9989 47.6248V46.1258C2.99725 44.6259 2.8834 44.663 4.03016 45.5631C5.19837 46.4632 7.41021 47.6817 8.90595 48.2823C13.8527 50.6822 17.6147 50.9817 22.4988 49.7822C24.9738 49.1824 28.1278 47.6446 30.8429 45.8444C31.6951 45.2446 33.6446 44.0822 33.8426 43.7819C33.9086 43.7819 34.2213 43.4255 34.5934 43.126C37.4372 40.7253 42.2082 36.2629 44.4365 33.5635C44.59 33.5635 44.8193 33.3011 44.9992 33.0008C45.6625 32.4011 47.2605 30.3006 47.5303 30.0011L47.5311 30.0003Z" fill="#95979A"/>
</svg>