<svg width="15" height="16" viewBox="0 0 15 16" fill="none" xmlns="http://www.w3.org/2000/svg">
<path d="M9.74534 2.39175C9.17522 1.77622 8.37893 1.43726 7.50003 1.43726C6.61643 1.43726 5.81751 1.77417 5.25003 2.38589C4.6764 3.00435 4.3969 3.84487 4.46253 4.75249C4.59261 6.54311 5.9552 7.99975 7.50003 7.99975C9.04485 7.99975 10.4051 6.54341 10.5372 4.75307C10.6037 3.85366 10.3225 3.01489 9.74534 2.39175Z" fill="#C4C4C4"/>
<path d="M12.6562 14.5616H2.34367C2.20869 14.5634 2.07502 14.535 1.95237 14.4786C1.82973 14.4222 1.7212 14.3392 1.63469 14.2356C1.44426 14.0079 1.3675 13.6971 1.42434 13.3827C1.6716 12.0111 2.44328 10.8588 3.65617 10.0499C4.73371 9.33186 6.09865 8.93665 7.49992 8.93665C8.90119 8.93665 10.2661 9.33215 11.3437 10.0499C12.5566 10.8585 13.3282 12.0108 13.5755 13.3824C13.6323 13.6968 13.5556 14.0076 13.3652 14.2353C13.2787 14.339 13.1702 14.422 13.0475 14.4785C12.9249 14.535 12.7912 14.5634 12.6562 14.5616Z" fill="#C4C4C4"/>
</svg>
