<svg xmlns="http://www.w3.org/2000/svg" width="234" height="145" viewBox="0 0 234 145" fill="none">
  <path d="M234 0.680786H187.45V144.363H234V0.680786Z" fill="#FEFEFE"/>
  <path d="M224.514 53.7222C222.454 54.7577 220.194 56.1494 217.956 57.7749C216.208 59.0219 213.514 61.2041 210.174 63.9208L209.506 64.4663L203.037 57.8863L203.738 57.2294C205.119 55.9267 206.934 54.3568 209.305 52.4084C210.641 51.3284 211.955 50.3709 213.302 49.5025C206.143 46.7413 202.525 41.8425 202.525 34.9284C202.525 30.241 204.295 26.2329 207.624 23.3381C210.998 20.3987 215.529 18.9068 221.096 18.9068C221.92 18.9068 223.167 18.9848 224.681 19.1406L225.527 19.2297V28.6489L224.447 28.4819C223.245 28.3038 222.265 28.2147 221.43 28.2147C218.669 28.2147 216.397 28.8938 214.672 30.241C213.046 31.3767 212.233 32.9799 212.233 35.0174C212.233 37.144 213.191 38.7473 215.262 40.0722C217.455 41.5641 220.328 42.3101 223.813 42.3101C225.85 42.3101 229.001 41.72 233.989 40.4173V0.680786H187.438V144.363C213.146 144.363 233.989 144.363 233.989 144.363V49.959C230.738 50.872 227.554 52.1189 224.514 53.7222Z" fill="#FF4D00"/>
  <path d="M87.9245 135.767H87.9134L87.8577 120.826L85.1633 120.881L85.219 138.283H97.5887L97.533 135.712L87.9245 135.767Z" fill="#4B4145"/>
  <path d="M99.8934 125.602L99.949 138.284H102.577L102.521 125.547L99.8934 125.602Z" fill="#4B4145"/>
  <path d="M112.586 125.168C111.272 125.168 110.148 125.29 109.112 125.569C109.034 125.591 108.945 125.602 108.867 125.613L108.812 120.057L106.184 120.113L106.229 137.983L106.574 138.05C109.424 138.584 110.671 138.618 112.385 138.618H112.809C116.605 138.618 119.155 135.89 119.155 131.837C119.166 127.729 116.65 125.168 112.586 125.168ZM116.505 131.837C116.505 134.576 115.013 136.213 112.508 136.213C111.495 136.213 110.615 136.213 108.901 135.979L108.856 128.052C110.326 127.662 111.539 127.617 112.43 127.617C115.024 127.617 116.505 129.154 116.505 131.837Z" fill="#4B4145"/>
  <path d="M128.752 125.268C126.648 125.268 124.41 125.48 122.105 125.892L121.716 126.003L121.771 138.284H124.399L124.354 128.129C125.969 127.951 127.283 127.918 128.752 127.918L129.22 127.862L129.164 125.257H128.752V125.268Z" fill="#4B4145"/>
  <path d="M142.881 125.814C140.32 125.313 138.884 125.168 136.746 125.168C132.861 125.168 130.322 127.795 130.3 131.87C130.3 135.934 132.849 138.673 136.646 138.673C137.893 138.673 138.995 138.395 140.086 137.794C140.253 137.716 140.42 137.638 140.587 137.538L140.643 138.283L143.271 138.228L143.226 125.869L142.881 125.814ZM140.61 134.988C139.24 135.856 138.149 136.213 136.846 136.213C134.497 136.213 132.983 134.52 132.983 131.915C132.983 129.221 134.475 127.617 136.98 127.617C138.238 127.617 139.329 127.695 140.587 127.84L140.61 134.988Z" fill="#4B4145"/>
  <path d="M153.77 125.268C151.666 125.268 149.428 125.48 147.123 125.892L146.733 126.003L146.789 138.284H149.416L149.372 128.129C150.986 127.951 152.3 127.918 153.77 127.918L154.237 127.862L154.182 125.257H153.77V125.268Z" fill="#4B4145"/>
  <path d="M168.578 125.547L165.95 125.602L165.939 126.727L165.984 135.923C164.636 136.124 163.311 136.224 162.031 136.224C160.094 136.224 159.114 135.155 159.114 133.051L159.058 125.558L156.431 125.613V133.385C156.431 136.803 158.301 138.684 161.708 138.684C162.966 138.684 164.347 138.595 165.594 138.406C165.694 138.395 165.794 138.384 165.895 138.373C165.661 140.611 164.469 141.835 162.532 141.835C161.14 141.835 159.738 141.579 157.834 140.989L157.355 140.9L157.277 140.878V140.889L157.221 140.878L157.255 143.439L157.544 143.539C159.426 144.162 160.918 144.429 162.532 144.429C166.173 144.429 168.511 141.935 168.645 137.916L168.578 125.547Z" fill="#4B4145"/>
  <path d="M101.029 120.024C100.083 120.024 99.3589 120.77 99.3589 121.75C99.3589 122.752 100.071 123.498 101.029 123.498C101.975 123.498 102.699 122.741 102.699 121.75C102.699 120.759 101.986 120.024 101.029 120.024Z" fill="#4B4145"/>
  <path d="M10.4333 96.9437L6.46963 106.753L2.46146 96.9103L0.702324 96.9548L0.123366 109.291L0.0899658 109.87V109.926L2.02724 109.87L2.42806 102.121L5.71253 109.926L7.2824 109.892L10.5001 102.121L10.9677 109.926H12.905L12.1813 96.9103L10.4333 96.9437Z" fill="#4B4145"/>
  <path d="M18.5498 100.462C15.9556 100.462 14.1408 102.455 14.1408 105.316C14.1408 108.2 15.9556 110.204 18.5498 110.204C21.144 110.204 22.9588 108.189 22.9588 105.316C22.9588 102.455 21.144 100.462 18.5498 100.462ZM18.5498 108.178C17.1024 108.178 16.1338 107.031 16.1338 105.316C16.1338 103.635 17.1024 102.511 18.5498 102.511C19.9972 102.511 20.9658 103.635 20.9658 105.316C20.9658 107.031 19.9861 108.178 18.5498 108.178Z" fill="#4B4145"/>
  <path d="M28.5257 100.518C27.6906 100.518 26.9336 100.607 26.2655 100.807C26.2099 100.818 26.1431 100.829 26.0763 100.841L26.0206 96.3759L24.1167 96.4315L24.1724 109.926L26.0763 109.87L26.0317 102.833C26.7443 102.644 27.4457 102.555 28.3141 102.555C29.3496 102.555 29.9508 103.312 29.9508 104.615L30.0065 109.915H31.9104V104.325C31.9104 101.976 30.6077 100.518 28.5257 100.518Z" fill="#4B4145"/>
  <path d="M40.8397 100.974C39.2587 100.629 38.368 100.518 37.0319 100.518C34.5491 100.518 32.9347 102.399 32.9236 105.316C32.9236 108.233 34.5491 110.193 36.9763 110.193C37.7111 110.193 38.3457 110.026 38.9469 109.658C39.0471 109.614 39.1362 109.569 39.2364 109.514L39.2921 109.937L41.196 109.881L41.1514 101.052L40.8397 100.974ZM39.2587 107.432C38.4793 107.988 37.8447 108.222 37.0987 108.222C35.7515 108.222 34.8831 107.098 34.8831 105.361C34.8831 103.568 35.7404 102.499 37.1767 102.499C37.9004 102.499 38.5239 102.555 39.2364 102.611L39.2587 107.432Z" fill="#4B4145"/>
  <path d="M52.1627 100.518C51.0048 100.518 49.8914 100.74 48.9896 101.152C48.444 100.718 47.7426 100.518 46.7962 100.518C45.6606 100.551 44.2689 100.729 43.2446 100.974L42.8994 101.097L42.9551 109.926L44.859 109.87L44.8144 102.733C45.5159 102.633 46.0948 102.588 46.607 102.566C47.6535 102.566 48.1768 102.867 48.1768 104.537L48.2325 109.926L50.1364 109.87V104.236C50.1364 103.68 50.0918 103.223 49.9582 102.9C50.5929 102.666 51.2052 102.566 51.9623 102.566C52.6526 102.566 53.4431 102.8 53.4431 104.626L53.4988 109.926H55.4138V104.336C55.4138 101.876 54.267 100.518 52.1627 100.518Z" fill="#4B4145"/>
  <path d="M66.3138 100.518C65.1559 100.518 64.0425 100.74 63.1407 101.152C62.5951 100.718 61.8937 100.518 60.9473 100.518C59.8117 100.551 58.42 100.729 57.3957 100.974L57.0505 101.097L57.1062 109.926L59.0101 109.87L58.9655 102.733C59.667 102.633 60.2459 102.588 60.7581 102.566C61.8046 102.566 62.3279 102.867 62.3279 104.537L62.3836 109.926L64.2875 109.87V104.236C64.2875 103.68 64.2429 103.223 64.1093 102.9C64.744 102.666 65.3563 102.566 66.1134 102.566C66.8037 102.566 67.5942 102.8 67.5942 104.626L67.6499 109.926H69.5649V104.336C69.5538 101.876 68.407 100.518 66.3138 100.518Z" fill="#4B4145"/>
  <path d="M74.7866 100.518C72.3149 100.518 70.5781 102.499 70.5781 105.339C70.5781 108.289 72.2927 110.193 74.9425 110.193C76.0893 110.193 76.9466 109.937 77.9486 109.603L78.3161 109.436L77.9709 107.777L77.9486 107.654L77.9375 107.599L77.5256 107.721C76.5235 108.011 75.8221 108.167 74.987 108.167C73.8959 108.167 73.1054 107.565 72.738 106.552C72.7046 106.463 72.6823 106.374 72.6601 106.285L78.6167 106.24L78.6612 105.884C78.7057 105.472 78.7057 105.316 78.7057 104.882C78.6723 102.266 77.1025 100.518 74.7866 100.518ZM74.7978 102.433C75.8332 102.433 76.5569 103.112 76.8019 104.192C76.813 104.259 76.8241 104.325 76.8353 104.392L73.239 104.448H72.6378C72.8716 103.19 73.6733 102.433 74.7978 102.433Z" fill="#4B4145"/>
  <path d="M85.7089 96.4315L85.7646 99.9275V100.774C85.0965 100.607 84.4062 100.529 83.5935 100.529C81.0104 100.529 79.4072 102.366 79.4072 105.316C79.4072 108.222 81.0327 110.171 83.4599 110.171H83.7271C84.7959 110.171 85.5642 110.148 87.3233 109.77L87.6796 109.647L87.6239 96.387L85.7089 96.4315ZM85.7312 108.033C84.7291 108.211 84.217 108.211 83.6269 108.211C82.1906 108.211 81.3333 107.12 81.3333 105.294C81.3333 103.513 82.1906 102.488 83.6714 102.488C84.1836 102.488 84.885 102.522 85.6866 102.7L85.7312 108.033Z" fill="#4B4145"/>
  <path d="M101.04 103.401C100.918 103.323 100.784 103.257 100.65 103.19C101.53 102.577 102.02 101.586 102.02 100.395C102.02 98.1461 100.528 96.799 98.034 96.799C96.6423 96.799 94.9834 96.8546 93.9925 96.9103L93.5694 96.9882L93.625 109.915L94.6827 109.959C95.7961 110.015 97.0654 110.07 98.1342 110.07C100.929 110.07 102.588 108.612 102.588 106.162C102.577 104.927 102.031 103.936 101.04 103.401ZM97.867 102.332L95.5623 102.388L95.5067 98.9032C96.286 98.8698 97.1211 98.8476 97.9116 98.8476C99.3701 98.8476 100.049 99.3931 100.049 100.551C100.049 101.687 99.2587 102.332 97.867 102.332ZM95.5623 108V104.337H98.1788C99.6707 104.337 100.561 104.982 100.561 106.062C100.561 107.677 99.1808 108.022 98.0229 108.022C97.3549 108.022 96.698 108 95.9965 107.966L95.5623 108Z" fill="#4B4145"/>
  <path d="M103.857 100.84L103.913 109.926H105.817L105.761 100.785L103.857 100.84Z" fill="#4B4145"/>
  <path d="M112.018 100.518C110.682 100.518 109.045 100.696 107.954 100.974L107.609 101.108L107.665 109.926L109.569 109.87L109.524 102.744C110.248 102.622 110.994 102.566 111.818 102.566C112.853 102.566 113.454 103.323 113.454 104.626L113.51 109.926H115.414V104.336C115.414 101.976 114.111 100.518 112.018 100.518Z" fill="#4B4145"/>
  <path d="M127.427 104.993C128.863 104.27 129.687 102.856 129.687 101.097C129.687 98.4357 127.939 96.7767 125.123 96.7767C124.031 96.7767 122.94 96.8324 121.961 96.8881L121.17 96.9772L121.226 109.926L123.174 109.87L123.118 105.572H124.855C125.067 105.572 125.278 105.561 125.434 105.528L128.307 109.937H130.701L127.739 105.517L127.427 104.993ZM127.706 101.108C127.706 102.6 126.759 103.524 125.223 103.524L123.185 103.579L123.13 98.9033C123.842 98.881 124.455 98.8588 125.167 98.8588C126.325 98.8588 127.706 99.2484 127.706 101.108Z" fill="#4B4145"/>
  <path d="M138.038 100.974C136.457 100.629 135.566 100.518 134.23 100.518C131.747 100.518 130.133 102.399 130.122 105.316C130.122 108.233 131.747 110.193 134.174 110.193C134.909 110.193 135.544 110.026 136.145 109.658C136.245 109.614 136.334 109.569 136.434 109.514L136.49 109.937L138.394 109.881L138.349 101.052L138.038 100.974ZM136.457 107.432C135.677 107.988 135.043 108.222 134.297 108.222C132.95 108.222 132.081 107.098 132.081 105.361C132.081 103.568 132.938 102.499 134.375 102.499C135.098 102.499 135.733 102.555 136.434 102.611L136.457 107.432Z" fill="#4B4145"/>
  <path d="M143.282 104.314C142.013 103.98 141.69 103.836 141.69 103.379C141.69 102.744 142.102 102.455 142.981 102.455C143.638 102.455 144.54 102.644 145.419 102.967L145.876 103.067L146.355 101.275L146.01 101.141C145.286 100.852 144.139 100.54 143.059 100.54C140.988 100.54 139.752 101.62 139.752 103.435C139.752 105.261 141.066 105.828 142.48 106.162L142.692 106.207C144.061 106.53 144.618 106.719 144.618 107.287C144.618 108 143.872 108.245 143.17 108.245C142.358 108.245 141.3 107.955 140.331 107.476L139.908 107.332L139.875 107.309L139.819 107.287L139.396 109.169L139.686 109.313C140.788 109.859 142.068 110.171 143.104 110.171C145.208 110.171 146.511 109.024 146.511 107.165C146.522 105.116 144.796 104.693 143.282 104.314Z" fill="#4B4145"/>
  <path d="M152.055 100.518C151.22 100.518 150.463 100.607 149.795 100.807C149.739 100.818 149.673 100.829 149.606 100.841L149.55 96.3759L147.646 96.4315L147.702 109.926L149.606 109.87L149.561 102.833C150.274 102.644 150.975 102.555 151.844 102.555C152.879 102.555 153.48 103.312 153.48 104.615L153.536 109.915H155.44V104.325C155.44 101.976 154.148 100.518 152.055 100.518Z" fill="#4B4145"/>
  <path d="M157.121 100.84L157.177 109.926H159.081L159.025 100.785L157.121 100.84Z" fill="#4B4145"/>
  <path d="M168.478 96.3759L166.574 96.4315L166.629 99.9275V100.774C165.961 100.607 165.26 100.529 164.458 100.529C161.875 100.529 160.272 102.366 160.272 105.316C160.272 108.222 161.898 110.171 164.325 110.171H164.592C165.661 110.171 166.429 110.148 168.188 109.77L168.544 109.647L168.478 96.3759ZM166.607 108.033C165.616 108.211 165.104 108.211 164.503 108.211C163.067 108.211 162.209 107.12 162.209 105.294C162.209 103.513 163.067 102.488 164.547 102.488C165.06 102.488 165.761 102.522 166.563 102.7L166.607 108.033Z" fill="#4B4145"/>
  <path d="M104.77 95.7523C103.913 95.7523 103.267 96.4203 103.267 97.2999C103.267 98.2018 103.913 98.8809 104.77 98.8809C105.627 98.8809 106.273 98.2018 106.273 97.2999C106.273 96.4203 105.627 95.7523 104.77 95.7523Z" fill="#4B4145"/>
  <path d="M158.023 95.7523C157.166 95.7523 156.52 96.4203 156.52 97.2999C156.52 98.2018 157.166 98.8809 158.023 98.8809C158.88 98.8809 159.526 98.2018 159.526 97.2999C159.515 96.4203 158.88 95.7523 158.023 95.7523Z" fill="#4B4145"/>
  <path d="M40.8731 68.7973V74.8541C40.8731 76.3906 40.4388 76.8025 38.8578 76.8025C38.1898 76.8025 37.6665 76.7023 37.2657 76.4796C37.377 76.0009 37.4327 75.4776 37.4327 74.8652L37.3771 69.7882L34.8274 69.8439V74.843C34.8274 76.3794 34.3932 76.7914 32.8122 76.7914C32.1442 76.7914 31.6209 76.6912 31.2201 76.4685C31.3314 75.9897 31.3871 75.4665 31.3871 74.8541L31.3314 70.8459L28.7706 70.9127V74.843C28.7706 76.3349 28.3253 76.7914 26.8556 76.7914L14.909 76.7691C13.3392 76.7691 13.2167 76.6578 12.4596 74.431L9.70955 66.6262L7.40486 67.4167L7.38259 67.4279L7.32692 67.4501L10.0992 75.4887C10.1772 75.7225 10.2551 75.9341 10.3219 76.2013C8.93019 76.6132 7.43826 76.8248 5.77932 76.8248C4.34306 76.8248 3.05154 76.68 1.74889 76.3572L1.64868 76.3349L1.71549 78.8623C3.01814 79.1295 4.37646 79.2631 5.76819 79.2631C7.87248 79.2631 9.96564 78.9625 11.7693 78.3724C12.5375 78.9736 13.5618 79.2631 14.9202 79.2631H27.0672C28.4143 79.2631 29.4164 78.9736 30.1623 78.3835C30.9306 78.9625 31.9549 79.2631 33.2241 79.2631C34.5268 79.2631 35.4954 78.9736 36.2191 78.3946C36.9874 78.9736 38.0117 79.2631 39.2809 79.2631C42.1201 79.2631 43.5006 77.838 43.5006 74.8875L43.445 68.7528L40.8731 68.7973Z" fill="#4B4145"/>
  <path d="M46.4956 63.3975L46.5513 79.2409H49.101L49.0453 63.3418L46.4956 63.3975Z" fill="#4B4145"/>
  <path d="M52.3743 68.8085V79.1963C52.3743 80.8887 51.7508 81.6012 50.2923 81.6012C50.1921 81.6012 50.0919 81.6012 49.9805 81.5901L49.8803 81.579L50.2923 84.0729L50.3479 84.0507H50.3591C53.2539 84.0061 54.9796 82.1913 54.9796 79.1963L54.9239 68.7528L52.3743 68.8085Z" fill="#4B4145"/>
  <path d="M88.2697 68.8085L88.3253 76.7914H77.5701C76.9243 76.7914 76.4122 76.6132 76.0447 76.3015C76.0447 74.5535 75.5882 72.4269 74.8868 70.9016L74.8534 70.8237L73.1833 71.77L72.6155 72.0707L72.6267 72.0929L72.5821 72.1152C73.0943 73.3176 73.4506 75.0768 73.4506 76.4128C73.4506 79.252 71.8139 81.167 69.3756 81.167C66.9373 81.167 65.3006 79.252 65.3006 76.4128C65.3006 75.6891 65.412 74.8096 65.6124 73.763L63.3522 72.6385H63.2854L63.2631 72.7053C62.9959 73.6071 62.6842 74.9766 62.6842 76.3572C62.6842 80.6325 65.4342 83.6164 69.3645 83.6164C72.5265 83.6164 74.9091 81.7793 75.733 78.7064L75.6885 78.6507V78.6396L75.7664 78.6841C76.4567 79.0516 77.2917 79.2408 78.227 79.2408L90.875 79.1852L90.8193 68.7639L88.2697 68.8085Z" fill="#4B4145"/>
  <path d="M165.316 69.6212C164.169 68.4188 162.81 67.7842 161.396 67.7842C157.377 67.7842 156.832 72.9837 156.62 74.9432C156.598 75.177 156.576 75.3663 156.553 75.4888C156.42 76.3795 155.941 76.7914 155.061 76.7914L151.621 76.8471V73.6517C151.621 70.1891 149.027 67.773 145.319 67.773C143.66 67.773 142.057 68.2518 140.643 69.2316L141.734 71.3581L141.79 71.4027L141.846 71.3693C142.948 70.5788 144.05 70.2225 145.319 70.2225C147.568 70.2225 149.016 71.5697 149.016 73.6628L149.071 76.8025H136.212C135.277 76.8025 134.586 76.4574 134.219 75.8116C133.751 71.2356 130.934 67.773 127.661 67.773C123.642 67.773 123.096 72.9725 122.885 74.9321C122.862 75.1659 122.84 75.3551 122.818 75.4776C122.684 76.3683 122.205 76.7803 121.326 76.7803L112.029 76.758C110.459 76.758 110.337 76.6467 109.58 74.4199L106.83 66.6151L104.525 67.4056L104.503 67.4167L104.447 67.439L107.219 75.4776C107.297 75.7003 107.375 75.923 107.442 76.1902C106.05 76.6021 104.558 76.8137 102.899 76.8137C101.463 76.8137 100.172 76.6689 98.869 76.3461L98.7688 76.3238L98.8356 78.8512C100.138 79.1184 101.497 79.252 102.888 79.252C104.993 79.252 107.086 78.9514 108.889 78.3613C109.658 78.9625 110.682 79.252 112.04 79.252H121.337C122.384 79.252 123.319 78.9625 124.065 78.4058C125.356 78.9736 126.648 79.252 128.006 79.252C129.331 79.252 131.513 78.9736 133.607 78.172C134.43 78.8734 135.555 79.252 136.88 79.252H155.095C156.141 79.252 157.077 78.9625 157.823 78.4058C159.114 78.9736 160.406 79.252 161.764 79.252C163.256 79.252 165.783 78.8846 168.043 77.8157C168.155 74.5869 167.153 71.5251 165.316 69.6212ZM159.147 75.9675C159.192 75.7114 159.225 75.3774 159.27 74.9543C159.459 73.1841 159.76 70.2225 161.508 70.2225C163.267 70.2225 165.048 72.9502 165.36 76.2236C164.091 76.6021 162.81 76.8137 161.753 76.8137C160.795 76.8137 159.982 76.6355 159.081 76.2793L159.147 75.9675ZM125.401 75.9675C125.445 75.7114 125.479 75.3774 125.523 74.9543C125.713 73.1841 126.013 70.2225 127.761 70.2225C129.52 70.2225 131.302 72.9502 131.614 76.2236C130.344 76.6021 129.064 76.8137 128.006 76.8137C127.049 76.8137 126.236 76.6355 125.334 76.2793L125.401 75.9675Z" fill="#4B4145"/>
  <path d="M88.3142 81.7349C87.3678 81.7349 86.6441 82.4808 86.6441 83.4606C86.6441 84.4626 87.3567 85.2086 88.3142 85.2086C89.2605 85.2086 89.9842 84.4515 89.9842 83.4606C89.9731 82.4808 89.2605 81.7349 88.3142 81.7349Z" fill="#4B4145"/>
  <path d="M69.1863 67.0605C68.2399 67.0605 67.5162 67.8065 67.5162 68.7863C67.5162 69.7883 68.2288 70.5343 69.1863 70.5343C70.1327 70.5343 70.8564 69.7772 70.8564 68.7863C70.8452 67.7954 70.1327 67.0605 69.1863 67.0605Z" fill="#4B4145"/>
  <path d="M33.792 63.4977C32.8456 63.4977 32.1219 64.2436 32.1219 65.2234C32.1219 66.2255 32.8345 66.9714 33.792 66.9714C34.7383 66.9714 35.462 66.2143 35.462 65.2234C35.462 64.2436 34.7383 63.4977 33.792 63.4977Z" fill="#4B4145"/>
  <path d="M37.9449 63.4977C36.9985 63.4977 36.2748 64.2436 36.2748 65.2234C36.2748 66.2255 36.9874 66.9714 37.9449 66.9714C38.8913 66.9714 39.615 66.2143 39.615 65.2234C39.6038 64.2436 38.8913 63.4977 37.9449 63.4977Z" fill="#4B4145"/>
  <path d="M35.8294 59.7567C34.8831 59.7567 34.1594 60.5027 34.1594 61.4824C34.1594 62.4845 34.8719 63.2305 35.8294 63.2305C36.7758 63.2305 37.4995 62.4734 37.4995 61.4824C37.4995 60.5027 36.7869 59.7567 35.8294 59.7567Z" fill="#4B4145"/>
  <path d="M164.247 40.2169C162.632 38.5357 160.74 37.645 158.78 37.645C153.235 37.645 152.456 45.0378 152.167 47.8324C152.133 48.1887 152.1 48.467 152.066 48.6563C151.833 50.1705 150.964 50.9387 149.461 50.9387L144.852 50.9944V50.6493C144.852 45.2494 142.48 41.2969 138.517 40.0721L138.16 40.0165L138.015 39.9719L143.293 34.5275L141.489 32.7238L141.456 32.6904L133.807 40.5064L135.689 42.5438C139.608 42.5772 141.857 45.4386 141.857 50.4043L141.912 50.9499H127.628C126.781 50.9499 126.069 50.7717 125.412 50.3932L125.367 50.2373L125.379 50.1037C125.557 49.4134 125.646 48.5895 125.646 47.6765L125.59 39.0924L122.629 39.148V47.6543C122.629 50.0258 121.727 50.9499 119.4 50.9499H115.392C114.545 50.9499 113.833 50.7717 113.176 50.3932L113.131 50.2373L113.143 50.1037C113.321 49.4134 113.41 48.5895 113.41 47.6765L113.354 39.0924L110.393 39.148V47.6543C110.393 50.0258 109.491 50.9499 107.164 50.9499H103.59C101.263 50.9499 100.361 50.0258 100.361 47.6543L100.305 38.0347L97.3437 38.0903L97.3994 38.6025V38.7695L96.954 38.6136C95.6403 38.1571 94.2708 37.9122 93.0127 37.9122C88.6705 37.9122 85.1411 41.2301 85.1411 45.3162C85.1411 49.38 88.6705 52.6867 93.0127 52.6867C94.5825 52.6867 96.4085 52.2525 97.8893 51.5288L98.1008 51.3729L98.2678 51.629C99.1697 53.0319 100.829 53.7111 103.311 53.7111H107.442C109.446 53.7111 110.849 53.288 111.862 52.3527L112.029 52.3639L112.152 52.4307C113.243 53.2768 114.657 53.7111 116.349 53.7111H119.667C121.671 53.7111 123.074 53.288 124.087 52.3527L124.254 52.3639L124.377 52.4307C125.468 53.2768 126.882 53.7111 128.574 53.7111H149.45C150.975 53.7111 152.267 53.288 153.302 52.4307L153.458 52.4195V52.3639L153.558 52.4418C155.44 53.288 157.31 53.6999 159.281 53.6999C161.363 53.6999 164.915 53.2212 168.132 51.8183C168.277 47.2423 166.83 42.9113 164.247 40.2169ZM155.05 49.213C155.117 48.8456 155.173 48.3334 155.228 47.7433C155.518 44.9933 155.997 40.4062 158.936 40.4062C161.731 40.4062 164.603 44.7929 165.104 49.8253L164.993 49.959L164.87 50.0258C162.922 50.6158 160.951 50.9499 159.314 50.9499C157.789 50.9499 156.498 50.6493 154.995 49.959H154.905L155.05 49.213ZM97.2101 48.712C95.8295 49.4802 94.4155 49.881 93.0015 49.881C90.2738 49.881 88.1472 47.8658 88.1472 45.305C88.1472 42.6997 90.2849 40.6622 93.0015 40.6622C94.3821 40.6622 95.8629 41.0519 97.1767 41.7645L97.3326 41.8202V47.7099C97.3326 47.966 97.3326 48.1998 97.3883 48.5227L97.2992 48.6563L97.3437 48.6897L97.2101 48.712Z" fill="#4B4145"/>
  <path d="M95.2506 35.0285C96.1422 35.0285 96.865 34.2758 96.865 33.3473C96.865 32.4188 96.1422 31.6661 95.2506 31.6661C94.359 31.6661 93.6362 32.4188 93.6362 33.3473C93.6362 34.2758 94.359 35.0285 95.2506 35.0285Z" fill="#4B4145"/>
  <path d="M90.5633 35.0174C91.4874 35.0174 92.1776 34.2937 92.1776 33.3362C92.1776 32.3676 91.4985 31.655 90.5633 31.655C89.6391 31.655 88.9489 32.3787 88.9489 33.3362C88.9489 34.2826 89.6614 35.0174 90.5633 35.0174Z" fill="#4B4145"/>
  <path d="M111.239 56.7061C110.292 56.7061 109.58 57.4409 109.58 58.4207C109.58 59.4116 110.292 60.1575 111.239 60.1575C112.185 60.1575 112.898 59.4116 112.898 58.4207C112.887 57.4409 112.174 56.7061 111.239 56.7061Z" fill="#4B4145"/>
  <path d="M121.66 36.3089C122.584 36.3089 123.274 35.5852 123.274 34.6277C123.274 33.6591 122.595 32.9465 121.66 32.9465C120.736 32.9465 120.046 33.6702 120.046 34.6277C120.046 35.563 120.758 36.3089 121.66 36.3089Z" fill="#4B4145"/>
  <path d="M126.292 36.3089C127.216 36.3089 127.906 35.5852 127.906 34.6277C127.906 33.6591 127.227 32.9465 126.292 32.9465C125.368 32.9465 124.677 33.6702 124.677 34.6277C124.677 35.563 125.39 36.3089 126.292 36.3089Z" fill="#4B4145"/>
</svg>