<svg xmlns="http://www.w3.org/2000/svg" width="39" height="30" viewBox="0 0 39 30" fill="none">
  <path d="M17.902 29.9462L7.84695 18.1983L0 25.7806V28.43C0 29.266 0.680192 29.9462 1.51624 29.9462H17.902Z" fill="#95979A"/>
  <path d="M33.8137 28.43V27.9914L22.4391 17.6208L14.2212 23.5961L19.6562 29.9462H32.2974C33.1335 29.9462 33.8137 29.266 33.8137 28.43Z" fill="#95979A"/>
  <path d="M36.8983 25.4341C37.8912 25.4341 38.699 24.6264 38.699 23.6335V1.82501C38.699 0.818677 37.8803 0 36.8739 0H6.71028C5.70395 0 4.88525 0.818677 4.88525 1.82501V3.17928H32.2975H32.4912C32.5537 3.17928 32.6139 3.1885 32.6713 3.20458C34.0661 3.38829 35.1465 4.58409 35.1465 6.02823V25.4342L36.8983 25.4341Z" fill="#95979A"/>
  <path d="M33.8137 6.51619C33.8137 6.51607 33.8137 6.51595 33.8137 6.51584C33.8136 5.67996 33.1334 5 32.2975 5H4.21888H1.51624C0.680211 5 0 5.68015 0 6.51619V24.4153L7.42987 17.236C7.56195 17.1084 7.7408 17.041 7.92445 17.0496C8.10796 17.0582 8.27974 17.1423 8.39921 17.2819L13.352 23.0685L22.0948 16.7115C22.3507 16.5253 22.7019 16.5449 22.9357 16.758L33.8138 26.6759V26.5891C33.8138 26.5889 33.8137 26.5887 33.8137 26.5885L33.8137 6.51619ZM7.9859 14.4775C6.08083 14.4775 4.5309 12.9276 4.5309 11.0225C4.5309 9.11742 6.08081 7.5675 7.9859 7.5675C9.89099 7.5675 11.4409 9.11742 11.4409 11.0225C11.4409 12.9276 9.89097 14.4775 7.9859 14.4775Z" fill="#95979A"/>
  <path d="M7.986 12.6568C9.15808 12.6568 10.1082 11.7066 10.1082 10.5345C10.1082 9.36245 9.15808 8.41229 7.986 8.41229C6.81393 8.41229 5.86377 9.36245 5.86377 10.5345C5.86377 11.7066 6.81393 12.6568 7.986 12.6568Z" fill="#95979A"/>
</svg>