<svg xmlns="http://www.w3.org/2000/svg" width="18" height="11" viewBox="0 0 18 11" fill="none">
  <path d="M12.2727 4.58333C13.6227 4.58333 14.7273 3.55201 14.7273 2.29167C14.7273 1.03136 13.6227 0 12.2727 0C10.9227 0 9.8182 1.03136 9.8182 2.29167C9.8182 3.55201 10.9227 4.58333 12.2727 4.58333ZM5.72729 4.58333C7.07725 4.58333 8.1818 3.55201 8.1818 2.29167C8.1818 1.03136 7.07725 0 5.72729 0C4.37734 0 3.27271 1.03136 3.27271 2.29167C3.27271 3.55201 4.37734 4.58333 5.72729 4.58333ZM5.72729 6.26389C3.80443 6.26389 0 7.14228 0 8.9375V11H11.5714V8.9375C11.5714 7.14228 7.65004 6.26389 5.72729 6.26389ZM12.2727 6.68414C12.0274 6.68414 11.8579 6.68414 11.5714 6.72222C12.5127 7.3716 12.8571 7.79167 12.8571 8.9375V11H18V8.9375C18 7.14228 14.1956 6.68414 12.2727 6.68414Z" fill="#C4C4C4"/>
</svg>